<svg xmlns="http://www.w3.org/2000/svg" width="34" height="34" viewBox="0 0 34 34">
  <g id="ico_region" transform="translate(-140 -644)">
    <rect id="矩形_3111" data-name="矩形 3111" width="34" height="34" transform="translate(140 644)" fill="none"/>
    <g id="ico_location" transform="translate(32.12 647.121)">
      <path id="路径_5190" data-name="路径 5190" d="M346.472,238.135a5.292,5.292,0,1,1,5.138-5.29A5.123,5.123,0,0,1,346.472,238.135Zm0-2.008a3.287,3.287,0,0,0,0-6.574,3.289,3.289,0,0,0,0,6.574Z" transform="translate(-221.591 -221.309)" fill="#5c5c68"/>
      <path id="路径_5191" data-name="路径 5191" d="M124.881,27.757c-7.455-6.2-11.1-11.593-11.1-16.328a11.108,11.108,0,1,1,22.206,0C135.984,16.164,132.336,21.553,124.881,27.757Zm9.23-16.328c0-5.715-3.838-9.4-9.23-9.4s-9.224,3.684-9.224,9.4c0,3.919,2.88,8.306,9.224,13.858,6.345-5.551,9.23-9.939,9.23-13.858Z" transform="translate(0)" fill="#5c5c68"/>
    </g>
  </g>
</svg>
