<svg xmlns="http://www.w3.org/2000/svg" width="40" height="40" viewBox="0 0 40 40">
  <g id="ico_report_default" transform="translate(-1185 -447)">
    <rect id="bg_ico_report" width="40" height="40" transform="translate(1185 447)" fill="none"/>
    <path id="ico_report" d="M22.043,16.756A2.708,2.708,0,0,1,19.7,20.8H2.594A2.7,2.7,0,0,1,.358,16.756L8.965,1.387a2.5,2.5,0,0,1,4.471,0l8.607,15.369Zm-1.752,1.061-.016-.028L11.669,2.419l-.058-.111a.482.482,0,0,0-.82,0l-.058.112L2.11,17.816a.62.62,0,0,0,.484.9H19.7a.63.63,0,0,0,.6-.9ZM11.1,6.24a.831.831,0,0,0-.916.714v4.812a.831.831,0,0,0,.916.714h.2a.831.831,0,0,0,.916-.714V6.954A.831.831,0,0,0,11.3,6.24Zm-.916,9.337a1.018,1.018,0,1,0,.3-.719,1.029,1.029,0,0,0-.3.719Z" transform="translate(1193.47 456.591)" fill="#b9b9b9"/>
  </g>
</svg>
