<?xml version="1.0" encoding="UTF-8"?>
<svg width="64px" height="65px" viewBox="0 0 64 65" version="1.1" xmlns="http://www.w3.org/2000/svg" xmlns:xlink="http://www.w3.org/1999/xlink">
    <!-- Generator: Sketch 49.3 (51167) - http://www.bohemiancoding.com/sketch -->
    <title>Page 1</title>
    <desc>Created with Sketch.</desc>
    <defs>
        <polygon id="path-1" points="0 1.45725 63.4989535 1.45725 63.4989535 65.4772727 0 65.4772727"></polygon>
    </defs>
    <g id="desktop" stroke="none" stroke-width="1" fill="none" fill-rule="evenodd">
        <g id="dashboard-pro" transform="translate(-933.000000, -1478.000000)">
            <g id="Page-1" transform="translate(933.000000, 1477.000000)">
                <path d="M31.7340581,23.3048841 C26.2619651,23.3048841 21.8102209,27.7893159 21.8102209,33.3000659 C21.8102209,38.8138614 26.2619651,43.2982932 31.7340581,43.2982932 C37.2061512,43.2982932 41.6578953,38.8138614 41.6578953,33.3000659 C41.6578953,27.7893159 37.2061512,23.3048841 31.7340581,23.3048841 M31.7340581,46.3437477 C24.5946395,46.3437477 18.7869651,40.4919068 18.7869651,33.3000659 C18.7869651,26.1097477 24.5946395,20.2594295 31.7340581,20.2594295 C38.8734767,20.2594295 44.6811512,26.1097477 44.6811512,33.3000659 C44.6811512,40.4919068 38.8734767,46.3437477 31.7340581,46.3437477" id="Fill-1" fill="#ff9502"></path>
                <g id="Group-5" transform="translate(0.000000, 0.065477)">
                    <mask id="mask-2" fill="white">
                        <use xlink:href="#path-1"></use>
                    </mask>
                    <g id="Clip-4"></g>
                    <path d="M25.8926744,62.4318182 L38.1172093,62.4318182 L38.1172093,56.9804545 C38.1172093,56.3013182 38.5646512,55.7044091 39.2146512,55.5171136 C42.6626744,54.5273409 44.9165116,52.9071591 47.4363953,50.6154545 C47.9276744,50.1738636 48.6456977,50.0977273 49.2125581,50.4312045 L53.844186,53.1584091 L59.9239535,42.5023636 L55.2227907,39.7736364 C54.6559302,39.4447273 54.364186,38.7853864 54.4987209,38.13975 C54.8327907,36.5545909 55.0005814,34.9039545 55.0005814,33.2350455 C55.0005814,31.6179091 54.8252326,29.9687955 54.4805814,28.3318636 C54.3445349,27.68775 54.6362791,27.0284091 55.2031395,26.6964545 L59.8876744,23.9707727 L53.7837209,13.3177727 L49.2155814,16.0373636 C48.6472093,16.3784545 47.9216279,16.3068864 47.4318605,15.8561591 C44.9195349,13.5659773 42.6702326,11.9488409 39.2146512,10.9590682 C38.5661628,10.7732955 38.1172093,10.1763864 38.1172093,9.49420455 L38.1172093,4.50270455 L25.8926744,4.50270455 L25.8926744,9.49420455 C25.8926744,10.1763864 25.4437209,10.7732955 24.7937209,10.9590682 C21.6147674,11.8696591 19.0752326,13.3345227 16.302907,15.8576818 C15.8161628,16.2992727 15.104186,16.3784545 14.5388372,16.0510682 L9.75604651,13.2964545 L3.60976744,23.9738182 L8.27918605,26.6979773 C8.84604651,27.0284091 9.13627907,27.68775 9.00023256,28.3318636 C8.65406977,29.9794545 8.4772093,31.6285682 8.4772093,33.2350455 C8.4772093,34.8811136 8.64953488,36.53175 8.98813953,38.1382273 C9.12569767,38.7838636 8.83395349,39.4432045 8.2655814,39.7736364 L3.57651163,42.5008409 L9.6955814,53.1797273 L14.5463953,50.4190227 C15.1132558,50.0946818 15.8206977,50.1784318 16.302907,50.6154545 C19.0722093,53.1370909 21.6117442,54.6019545 24.7952326,55.5171136 C25.4452326,55.7044091 25.8926744,56.3013182 25.8926744,56.9804545 L25.8926744,62.4318182 Z M39.6288372,65.4772727 L24.3810465,65.4772727 C23.5466279,65.4772727 22.8694186,64.7966136 22.8694186,63.9545455 L22.8694186,58.1011818 C20.0502326,57.1479545 17.5877907,55.7211591 15.1011628,53.6015227 L9.87697674,56.5738864 C9.1544186,56.9804545 8.23988372,56.73225 7.82418605,56.0089545 L0.20255814,42.7048864 C-0.214651163,41.9755 0.033255814,41.0451136 0.755813953,40.6248409 L5.82430233,37.6768409 C5.57790698,36.2119773 5.45395349,34.72275 5.45395349,33.2350455 C5.45395349,31.7732273 5.58244186,30.284 5.83488372,28.7917273 L0.786046512,25.8467727 C0.439883721,25.64425 0.185930233,25.3107727 0.0831395349,24.9209545 C-0.0211627907,24.5296136 0.0347674419,24.1139091 0.235813953,23.7636818 L7.89372093,10.4596136 C8.31093023,9.73631818 9.22697674,9.48506818 9.95104651,9.90229545 L15.104186,12.8670455 C17.5938372,10.7489318 20.0562791,9.32365909 22.8694186,8.37195455 L22.8694186,2.97997727 C22.8694186,2.13790909 23.5466279,1.45725 24.3810465,1.45725 L39.6288372,1.45725 C40.4632558,1.45725 41.1404651,2.13790909 41.1404651,2.97997727 L41.1404651,8.375 C44.1682558,9.41197727 46.4115116,10.9316591 48.6230233,12.8518182 L53.56,9.91447727 C53.9061628,9.70738636 54.3203488,9.64495455 54.7118605,9.75154545 C55.1033721,9.85509091 55.4359302,10.1109091 55.6384884,10.4626591 L63.2616279,23.7667273 C63.6788372,24.4961136 63.4309302,25.4265 62.7083721,25.8482955 L57.6459302,28.79325 C57.8968605,30.2763864 58.0238372,31.7656136 58.0238372,33.2350455 C58.0238372,34.7364545 57.902907,36.2241591 57.6625581,37.6753182 L62.7416279,40.6248409 C63.464186,41.0435909 63.7136047,41.9724545 63.297907,42.7018409 L55.7080233,56.0059091 C55.5069767,56.3591818 55.1744186,56.615 54.7859302,56.7215909 C54.3944186,56.8251364 53.9832558,56.7672727 53.6340698,56.5632273 L48.6305814,53.61675 C46.4115116,55.5399545 44.1652326,57.0611591 41.1404651,58.0996591 L41.1404651,63.9545455 C41.1404651,64.7966136 40.4632558,65.4772727 39.6288372,65.4772727 Z" id="Fill-3" fill="#ff9502" mask="url(#mask-2)"></path>
                </g>
            </g>
        </g>
    </g>
</svg>