<?xml version="1.0" encoding="UTF-8"?>
<svg width="53px" height="53px" viewBox="0 0 53 53" version="1.1" xmlns="http://www.w3.org/2000/svg" xmlns:xlink="http://www.w3.org/1999/xlink">
    <!-- Generator: Sketch 49.3 (51167) - http://www.bohemiancoding.com/sketch -->
    <title>Page 1</title>
    <desc>Created with Sketch.</desc>
    <defs>
        <polygon id="path-1" points="0.119096154 0.119307692 22 0.119307692 22 22 0.119096154 22"></polygon>
    </defs>
    <g id="desktop" stroke="none" stroke-width="1" fill="none" fill-rule="evenodd">
        <g id="Inscription-as-craftsman" transform="translate(-307.000000, -543.000000)">
            <g id="Group-17" transform="translate(233.000000, 464.000000)">
                <g id="Page-1" transform="translate(74.000000, 79.000000)">
                    <g id="Group-3" transform="translate(31.000000, 31.000000)">
                        <mask id="mask-2" fill="white">
                            <use xlink:href="#path-1"></use>
                        </mask>
                        <g id="Clip-2"></g>
                        <path d="M21.1538462,22 C20.9372308,22 20.7206154,21.9170769 20.5556154,21.7520769 L0.367230769,1.56369231 C0.0363846154,1.23369231 0.0363846154,0.698923077 0.367230769,0.368076923 C0.698076923,0.0363846154 1.23369231,0.0363846154 1.56369231,0.368076923 L21.7520769,20.5556154 C22.0829231,20.8864615 22.0829231,21.4220769 21.7520769,21.7520769 C21.5870769,21.9170769 21.3704615,22 21.1538462,22" id="Fill-1" fill="#231F20" mask="url(#mask-2)"></path>
                    </g>
                    <path d="M18.5,1.76190476 C9.2702619,1.76190476 1.76190476,9.2702619 1.76190476,18.5 C1.76190476,27.7297381 9.2702619,35.2380952 18.5,35.2380952 C27.7297381,35.2380952 35.2380952,27.7297381 35.2380952,18.5 C35.2380952,9.2702619 27.7297381,1.76190476 18.5,1.76190476 M18.5,37 C8.29857143,37 0,28.7014286 0,18.5 C0,8.29945238 8.29857143,0 18.5,0 C28.7014286,0 37,8.29945238 37,18.5 C37,28.7014286 28.7014286,37 18.5,37" id="Fill-4" fill="#231F20"></path>
                </g>
            </g>
        </g>
    </g>
</svg>