<?xml version="1.0" encoding="UTF-8"?>
<svg width="54px" height="54px" viewBox="0 0 54 54" version="1.1" xmlns="http://www.w3.org/2000/svg" xmlns:xlink="http://www.w3.org/1999/xlink">
    <!-- Generator: Sketch 49.3 (51167) - http://www.bohemiancoding.com/sketch -->
    <title>Page 1</title>
    <desc>Created with Sketch.</desc>
    <defs>
        <polygon id="path-1" points="0 54 54 54 54 0 0 0"></polygon>
    </defs>
    <g id="desktop" stroke="none" stroke-width="1" fill="none" fill-rule="evenodd">
        <g id="quote-page" transform="translate(-909.000000, -668.000000)">
            <g id="Page-1" transform="translate(909.000000, 668.000000)">
                <path d="M40.5,28.8 C34.0488,28.8 28.8,34.0488 28.8,40.5 C28.8,46.9512 34.0488,52.2 40.5,52.2 C46.9512,52.2 52.2,46.9512 52.2,40.5 C52.2,34.0488 46.9512,28.8 40.5,28.8 M40.5,54 C33.0561,54 27,47.9439 27,40.5 C27,33.0561 33.0561,27 40.5,27 C47.9439,27 54,33.0561 54,40.5 C54,47.9439 47.9439,54 40.5,54" id="Fill-1" fill="#231F20"></path>
                <path d="M21.2267708,47 L0.895833333,47 C0.4004375,47 0,46.5959808 0,46.0961538 L0,0.903846154 C0,0.404019231 0.4004375,0 0.895833333,0 L42.1041667,0 C42.5986667,0 43,0.404019231 43,0.903846154 L43,21.4166346 C43,21.9164615 42.5986667,22.3204808 42.1041667,22.3204808 C41.6087708,22.3204808 41.2083333,21.9164615 41.2083333,21.4166346 L41.2083333,1.80769231 L1.79166667,1.80769231 L1.79166667,45.1923077 L21.2267708,45.1923077 C21.7212708,45.1923077 22.1226042,45.5963269 22.1226042,46.0961538 C22.1226042,46.5959808 21.7212708,47 21.2267708,47" id="Fill-3" fill="#231F20"></path>
                <mask id="mask-2" fill="white">
                    <use xlink:href="#path-1"></use>
                </mask>
                <g id="Clip-6"></g>
                <path d="M6.66666667,7.33333333 L8.33333333,7.33333333 L8.33333333,5.66666667 L6.66666667,5.66666667 L6.66666667,7.33333333 Z M5,9 L10,9 L10,4 L5,4 L5,9 Z" id="Fill-5" fill="#231F20" mask="url(#mask-2)"></path>
                <polygon id="Fill-7" fill="#231F20" mask="url(#mask-2)" points="7 5 9 5 9 1 7 1"></polygon>
                <path d="M15.6666667,7.33333333 L17.3333333,7.33333333 L17.3333333,5.66666667 L15.6666667,5.66666667 L15.6666667,7.33333333 Z M14,9 L19,9 L19,4 L14,4 L14,9 Z" id="Fill-8" fill="#231F20" mask="url(#mask-2)"></path>
                <polygon id="Fill-9" fill="#231F20" mask="url(#mask-2)" points="16 5 18 5 18 1 16 1"></polygon>
                <path d="M24.6666667,7.33333333 L26.3333333,7.33333333 L26.3333333,5.66666667 L24.6666667,5.66666667 L24.6666667,7.33333333 Z M23,9 L28,9 L28,4 L23,4 L23,9 Z" id="Fill-10" fill="#231F20" mask="url(#mask-2)"></path>
                <polygon id="Fill-11" fill="#231F20" mask="url(#mask-2)" points="25 5 27 5 27 1 25 1"></polygon>
                <path d="M33.6666667,7.33333333 L35.3333333,7.33333333 L35.3333333,5.66666667 L33.6666667,5.66666667 L33.6666667,7.33333333 Z M32,9 L37,9 L37,4 L32,4 L32,9 Z" id="Fill-12" fill="#231F20" mask="url(#mask-2)"></path>
                <polygon id="Fill-13" fill="#231F20" mask="url(#mask-2)" points="34 5 36 5 36 1 34 1"></polygon>
                <path d="M38.2864916,47 L33.2025655,40.797415 C32.8936798,40.4192628 32.9435566,39.8587079 33.3145694,39.5437294 C33.6864573,39.2296407 34.2368513,39.2794678 34.5466121,39.6576199 L38.2138641,44.1322721 L45.4258639,34.3554819 C45.7154989,33.9622037 46.2632679,33.8839039 46.6500313,34.1775279 C47.0367946,34.4720417 47.1146723,35.0299274 46.8250373,35.4223158 L38.2864916,47 Z" id="Fill-14" fill="#231F20" mask="url(#mask-2)"></path>
            </g>
        </g>
    </g>
</svg>