<?xml version="1.0" encoding="UTF-8"?>
<svg width="40px" height="60px" viewBox="0 0 40 60" version="1.1" xmlns="http://www.w3.org/2000/svg" xmlns:xlink="http://www.w3.org/1999/xlink">
    <!-- Generator: Sketch 49.3 (51167) - http://www.bohemiancoding.com/sketch -->
    <title>Page 1</title>
    <desc>Created with Sketch.</desc>
    <defs></defs>
    <g id="desktop" stroke="none" stroke-width="1" fill="none" fill-rule="evenodd">
        <g id="Inscription-as-craftsman" transform="translate(-503.000000, -539.000000)" fill="#231F20">
            <g id="Group-17" transform="translate(233.000000, 464.000000)">
                <g id="Group-16" transform="translate(190.000000, 75.000000)">
                    <g id="Page-1" transform="translate(80.000000, 0.000000)">
                        <path d="M15.5312,58 L34.1682,58 L36.5822,44.948 C37.0552,42.891 36.4912,40.409 34.5312,39.779 L23.6672,35.943 C23.2672,35.802 23.0002,35.424 23.0002,35 L23.0002,20 C23.0002,18.525 21.5002,17.13 19.9132,17.13 C18.3882,17.13 17.0002,18.498 17.0002,20 L17.0002,48 C17.0002,48.443 16.7082,48.833 16.2842,48.958 C15.8582,49.084 15.4032,48.916 15.1612,48.544 C9.9342,40.494 7.8662,39.827 6.0432,39.827 C5.5062,39.827 5.3152,40.046 5.1992,40.259 C4.8182,40.965 5.0132,42.396 5.6192,43.323 L15.5312,58 Z M35.0002,60 L15.0002,60 C14.6682,60 14.3572,59.834 14.1712,59.56 L3.9532,44.429 C3.0782,43.091 2.6062,40.85 3.4402,39.308 C3.9572,38.353 4.8812,37.827 6.0432,37.827 C8.6252,37.827 10.9352,39.005 15.0002,44.736 L15.0002,20 C15.0002,17.407 17.2962,15.13 19.9132,15.13 C22.6232,15.13 25.0002,17.407 25.0002,20 L25.0002,34.292 L35.1702,37.885 C38.2722,38.881 39.2212,42.399 38.5402,45.354 L35.9832,59.182 C35.8952,59.656 35.4822,60 35.0002,60 Z" id="Fill-1"></path>
                        <path d="M39,20 L31,20 C30.448,20 30,19.552 30,19 C30,18.448 30.448,18 31,18 L39,18 C39.552,18 40,18.448 40,19 C40,19.552 39.552,20 39,20" id="Fill-3"></path>
                        <path d="M28.7393,12.0869 C28.4833,12.0869 28.2273,11.9889 28.0323,11.7939 C27.6413,11.4029 27.6413,10.7709 28.0323,10.3799 L33.0753,5.3369 C33.4663,4.9469 34.0983,4.9469 34.4893,5.3369 C34.8803,5.7279 34.8803,6.3599 34.4893,6.7509 L29.4463,11.7939 C29.2513,11.9889 28.9953,12.0869 28.7393,12.0869" id="Fill-5"></path>
                        <path d="M20,10 C19.448,10 19,9.552 19,9 L19,1 C19,0.448 19.448,0 20,0 C20.552,0 21,0.448 21,1 L21,9 C21,9.552 20.552,10 20,10" id="Fill-7"></path>
                        <path d="M11.0869,12.0869 C10.8309,12.0869 10.5749,11.9889 10.3799,11.7939 L5.3369,6.7509 C4.9459,6.3599 4.9459,5.7279 5.3369,5.3369 C5.7269,4.9469 6.3599,4.9469 6.7499,5.3369 L11.7939,10.3799 C12.1849,10.7709 12.1849,11.4029 11.7939,11.7939 C11.5989,11.9889 11.3429,12.0869 11.0869,12.0869" id="Fill-9"></path>
                        <path d="M9,20 L1,20 C0.448,20 0,19.552 0,19 C0,18.448 0.448,18 1,18 L9,18 C9.552,18 10,18.448 10,19 C10,19.552 9.552,20 9,20" id="Fill-11"></path>
                    </g>
                </g>
            </g>
        </g>
    </g>
</svg>