<?xml version="1.0" encoding="UTF-8"?>
<svg width="46px" height="69px" viewBox="0 0 46 69" version="1.1" xmlns="http://www.w3.org/2000/svg" xmlns:xlink="http://www.w3.org/1999/xlink">
    <!-- Generator: Sketch 49.3 (51167) - http://www.bohemiancoding.com/sketch -->
    <title>Page 1</title>
    <desc>Created with Sketch.</desc>
    <defs></defs>
    <g id="desktop" stroke="none" stroke-width="1" fill="none" fill-rule="evenodd">
        <g id="dashboard-pro" transform="translate(-281.000000, -1469.000000)" fill="#ff9502">
            <g id="Page-1" transform="translate(281.000000, 1469.000000)">
                <path d="M17.86088,66.7 L39.29343,66.7 L42.06953,51.6902 C42.61348,49.32465 41.96488,46.47035 39.71088,45.74585 L27.21728,41.33445 C26.75728,41.1723 26.45023,40.7376 26.45023,40.25 L26.45023,23 C26.45023,21.30375 24.72523,19.6995 22.90018,19.6995 C21.14643,19.6995 19.55023,21.2727 19.55023,23 L19.55023,55.2 C19.55023,55.70945 19.21443,56.15795 18.72683,56.3017 C18.23693,56.4466 17.71368,56.2534 17.43538,55.8256 C11.42433,46.5681 9.04613,45.80105 6.94968,45.80105 C6.33213,45.80105 6.11248,46.0529 5.97908,46.29785 C5.54093,47.10975 5.76518,48.7554 6.46208,49.82145 L17.86088,66.7 Z M40.25023,69 L17.25023,69 C16.86843,69 16.51078,68.8091 16.29688,68.494 L4.54618,51.09335 C3.53993,49.55465 2.99713,46.9775 3.95623,45.2042 C4.55078,44.10595 5.61338,43.50105 6.94968,43.50105 C9.91898,43.50105 12.57548,44.85575 17.25023,51.4464 L17.25023,23 C17.25023,20.01805 19.89063,17.3995 22.90018,17.3995 C26.01668,17.3995 28.75023,20.01805 28.75023,23 L28.75023,39.4358 L40.44573,43.56775 C44.01303,44.71315 45.10438,48.75885 44.32123,52.1571 L41.38068,68.0593 C41.27948,68.6044 40.80453,69 40.25023,69 Z" id="Fill-1"></path>
                <path d="M44.85,23 L35.65,23 C35.0152,23 34.5,22.4848 34.5,21.85 C34.5,21.2152 35.0152,20.7 35.65,20.7 L44.85,20.7 C45.4848,20.7 46,21.2152 46,21.85 C46,22.4848 45.4848,23 44.85,23" id="Fill-3"></path>
                <path d="M33.050195,13.899935 C32.755795,13.899935 32.461395,13.787235 32.237145,13.562985 C31.787495,13.113335 31.787495,12.386535 32.237145,11.936885 L38.036595,6.137435 C38.486245,5.688935 39.213045,5.688935 39.662695,6.137435 C40.112345,6.587085 40.112345,7.313885 39.662695,7.763535 L33.863245,13.562985 C33.638995,13.787235 33.344595,13.899935 33.050195,13.899935" id="Fill-5"></path>
                <path d="M23,11.5 C22.3652,11.5 21.85,10.9848 21.85,10.35 L21.85,1.15 C21.85,0.5152 22.3652,0 23,0 C23.6348,0 24.15,0.5152 24.15,1.15 L24.15,10.35 C24.15,10.9848 23.6348,11.5 23,11.5" id="Fill-7"></path>
                <path d="M12.749935,13.899935 C12.455535,13.899935 12.161135,13.787235 11.936885,13.562985 L6.137435,7.763535 C5.687785,7.313885 5.687785,6.587085 6.137435,6.137435 C6.585935,5.688935 7.313885,5.688935 7.762385,6.137435 L13.562985,11.936885 C14.012635,12.386535 14.012635,13.113335 13.562985,13.562985 C13.338735,13.787235 13.044335,13.899935 12.749935,13.899935" id="Fill-9"></path>
                <path d="M10.35,23 L1.15,23 C0.5152,23 0,22.4848 0,21.85 C0,21.2152 0.5152,20.7 1.15,20.7 L10.35,20.7 C10.9848,20.7 11.5,21.2152 11.5,21.85 C11.5,22.4848 10.9848,23 10.35,23" id="Fill-11"></path>
            </g>
        </g>
    </g>
</svg>