<?xml version="1.0" encoding="UTF-8"?>
<svg width="60px" height="60px" viewBox="0 0 60 60" version="1.1" xmlns="http://www.w3.org/2000/svg" xmlns:xlink="http://www.w3.org/1999/xlink">
    <!-- Generator: Sketch 49.3 (51167) - http://www.bohemiancoding.com/sketch -->
    <title>Page 1</title>
    <desc>Created with Sketch.</desc>
    <defs></defs>
    <g id="desktop" stroke="none" stroke-width="1" fill="none" fill-rule="evenodd">
        <g id="dashboard-pro" transform="translate(-604.000000, -659.000000)" fill="#FF9502">
            <g id="Page-1" transform="translate(604.000000, 659.000000)">
                <path d="M2,58 L28,58 L28,24 L2,24 L2,58 Z M29,60 L1,60 C0.447,60 0,59.552 0,59 L0,23 C0,22.448 0.447,22 1,22 L29,22 C29.553,22 30,22.448 30,23 L30,59 C30,59.552 29.553,60 29,60 Z" id="Fill-1"></path>
                <path d="M8,22 L22,22 L22,10 L8,10 L8,22 Z M23,24 L7,24 C6.447,24 6,23.552 6,23 L6,9 C6,8.448 6.447,8 7,8 L23,8 C23.553,8 24,8.448 24,9 L24,23 C24,23.552 23.553,24 23,24 Z" id="Fill-3"></path>
                <path d="M15,10 C14.447,10 14,9.552 14,9 L14,1 C14,0.448 14.447,0 15,0 C15.553,0 16,0.448 16,1 L16,9 C16,9.552 15.553,10 15,10" id="Fill-4"></path>
                <path d="M36,58 L58,58 L58,14 L36,14 L36,58 Z M59,60 L35,60 C34.447,60 34,59.552 34,59 L34,13 C34,12.448 34.447,12 35,12 L59,12 C59.553,12 60,12.448 60,13 L60,59 C60,59.552 59.553,60 59,60 Z" id="Fill-5"></path>
                <path d="M55,20 L39,20 C38.447,20 38,19.552 38,19 C38,18.448 38.447,18 39,18 L55,18 C55.553,18 56,18.448 56,19 C56,19.552 55.553,20 55,20" id="Fill-6"></path>
                <path d="M55,38 L39,38 C38.447,38 38,37.552 38,37 C38,36.448 38.447,36 39,36 L55,36 C55.553,36 56,36.448 56,37 C56,37.552 55.553,38 55,38" id="Fill-7"></path>
                <path d="M55,32 L39,32 C38.447,32 38,31.552 38,31 C38,30.448 38.447,30 39,30 L55,30 C55.553,30 56,30.448 56,31 C56,31.552 55.553,32 55,32" id="Fill-8"></path>
                <path d="M55,26 L39,26 C38.447,26 38,25.552 38,25 C38,24.448 38.447,24 39,24 L55,24 C55.553,24 56,24.448 56,25 C56,25.552 55.553,26 55,26" id="Fill-9"></path>
                <path d="M55,44 L39,44 C38.447,44 38,43.552 38,43 C38,42.448 38.447,42 39,42 L55,42 C55.553,42 56,42.448 56,43 C56,43.552 55.553,44 55,44" id="Fill-10"></path>
                <path d="M55,50 L39,50 C38.447,50 38,49.552 38,49 C38,48.448 38.447,48 39,48 L55,48 C55.553,48 56,48.448 56,49 C56,49.552 55.553,50 55,50" id="Fill-11"></path>
                <path d="M23,32 L7,32 C6.447,32 6,31.552 6,31 C6,30.448 6.447,30 7,30 L23,30 C23.553,30 24,30.448 24,31 C24,31.552 23.553,32 23,32" id="Fill-12"></path>
                <path d="M23,40 L7,40 C6.447,40 6,39.552 6,39 C6,38.448 6.447,38 7,38 L23,38 C23.553,38 24,38.448 24,39 C24,39.552 23.553,40 23,40" id="Fill-13"></path>
                <path d="M23,48 L7,48 C6.447,48 6,47.552 6,47 C6,46.448 6.447,46 7,46 L23,46 C23.553,46 24,46.448 24,47 C24,47.552 23.553,48 23,48" id="Fill-14"></path>
                <path d="M19,14 L11,14 C10.447,14 10,13.552 10,13 C10,12.448 10.447,12 11,12 L19,12 C19.553,12 20,12.448 20,13 C20,13.552 19.553,14 19,14" id="Fill-15"></path>
                <path d="M19,20 L11,20 C10.447,20 10,19.552 10,19 C10,18.448 10.447,18 11,18 L19,18 C19.553,18 20,18.448 20,19 C20,19.552 19.553,20 19,20" id="Fill-16"></path>
                <path d="M14,58 L16,58 L16,54 L14,54 L14,58 Z M17,60 L13,60 C12.447,60 12,59.552 12,59 L12,53 C12,52.448 12.447,52 13,52 L17,52 C17.553,52 18,52.448 18,53 L18,59 C18,59.552 17.553,60 17,60 Z" id="Fill-17"></path>
                <path d="M46,58 L48,58 L48,56 L46,56 L46,58 Z M49,60 L45,60 C44.447,60 44,59.552 44,59 L44,55 C44,54.448 44.447,54 45,54 L49,54 C49.553,54 50,54.448 50,55 L50,59 C50,59.552 49.553,60 49,60 Z" id="Fill-18"></path>
            </g>
        </g>
    </g>
</svg>