<svg width="74px" height="63px" viewBox="0 0 74 63" version="1.1" xmlns="http://www.w3.org/2000/svg" xmlns:xlink="http://www.w3.org/1999/xlink">
    <!-- Generator: Sketch 49.3 (51167) - http://www.bohemiancoding.com/sketch -->
    <desc>Created with Sketch.</desc>
    <defs>
        <polygon id="path-1" points="0.851360976 0.5823 46.0866585 0.5823 46.0866585 62.1 0.851360976 62.1"></polygon>
        <polygon id="path-3" points="0.200973171 0.5823 45.4366317 0.5823 45.4366317 62.1 0.200973171 62.1"></polygon>
    </defs>
    <g id="desktop" stroke="none" stroke-width="1" fill="none" fill-rule="evenodd">
        <g id="landing-page" transform="translate(-597.000000, -4557.000000)">
            <g id="Page-1-Copy-4" transform="translate(597.000000, 4557.000000)">
                <polygon id="Fill-1" fill="#E2E2E2" points="31.3320512 1.79991 31.3320512 61.63461 72.257661 61.63461 72.257661 16.65351 65.1644902 9.31221 57.4540512 1.79991"></polygon>
                <g id="Group-34" transform="translate(0.000000, 0.317880)">
                    <g id="Group-4" transform="translate(27.073171, 0.000000)">
                        <mask id="mask-2" fill="white">
                            <use xlink:href="#path-1"></use>
                        </mask>
                        <g id="Clip-3"></g>
                        <path d="M2.90801951,60.04944 L44.0312634,60.04944 L44.0312634,16.38594 L30.2401902,2.63304 L2.90801951,2.63304 L2.90801951,60.04944 Z M45.0591415,62.10054 L1.87923902,62.10054 C1.31160488,62.10054 0.851360976,61.64154 0.851360976,61.07454 L0.851360976,1.60704 C0.851360976,1.04094 1.31160488,0.58194 1.87923902,0.58194 L30.6661415,0.58194 C30.938678,0.58194 31.2003854,0.68994 31.3926049,0.88254 L45.7856049,15.23664 C45.9787268,15.42924 46.0870195,15.68934 46.0870195,15.96114 L46.0870195,61.07454 C46.0870195,61.64154 45.6267756,62.10054 45.0591415,62.10054 Z" id="Fill-2" fill="#231F20" mask="url(#mask-2)"></path>
                    </g>
                    <polygon id="Fill-5" fill="#F4F4F4" points="64.2624122 60.17265 21.3207537 60.17265 21.3207537 1.60695 49.731339 1.60695 57.7810951 9.29745 64.2624122 16.98705"></polygon>
                    <g id="Group-9" transform="translate(19.853659, 0.000000)">
                        <mask id="mask-4" fill="white">
                            <use xlink:href="#path-3"></use>
                        </mask>
                        <g id="Clip-8"></g>
                        <path d="M2.25763171,60.04944 L43.3808756,60.04944 L43.3808756,16.38594 L29.5898024,2.63304 L2.25763171,2.63304 L2.25763171,60.04944 Z M44.4087537,62.10054 L1.22975366,62.10054 C0.661217073,62.10054 0.200973171,61.64154 0.200973171,61.07454 L0.200973171,1.60704 C0.200973171,1.04094 0.661217073,0.58194 1.22975366,0.58194 L30.0157537,0.58194 C30.2882902,0.58194 30.5499976,0.68994 30.7422171,0.88254 L45.1352171,15.23664 C45.328339,15.42924 45.4366317,15.68934 45.4366317,15.96114 L45.4366317,61.07454 C45.4366317,61.64154 44.9763878,62.10054 44.4087537,62.10054 Z" id="Fill-7" fill="#231F20" mask="url(#mask-4)"></path>
                    </g>
                    <path d="M64.2624122,16.98696 L49.8694122,16.98696 C49.301778,16.98696 48.8415341,16.52796 48.8415341,15.96186 L48.8415341,1.60776 L50.8972902,1.60776 L50.8972902,14.93586 L64.2624122,14.93586 L64.2624122,16.98696 Z" id="Fill-10" fill="#231F20"></path>
                    <path d="M41.4489341,22.88817 L29.7822024,22.88817 C29.2145683,22.88817 28.7543244,22.42917 28.7543244,21.86307 C28.7543244,21.29607 29.2145683,20.83707 29.7822024,20.83707 L41.4489341,20.83707 C42.0165683,20.83707 42.4768122,21.29607 42.4768122,21.86307 C42.4768122,22.42917 42.0165683,22.88817 41.4489341,22.88817" id="Fill-12" fill="#231F20"></path>
                    <path d="M53.1154854,31.0905 L29.7829244,31.0905 C29.2143878,31.0905 28.7541439,30.6315 28.7541439,30.0654 C28.7541439,29.4984 29.2143878,29.0394 29.7829244,29.0394 L53.1154854,29.0394 C53.6831195,29.0394 54.1433634,29.4984 54.1433634,30.0654 C54.1433634,30.6315 53.6831195,31.0905 53.1154854,31.0905" id="Fill-14" fill="#231F20"></path>
                    <path d="M53.1154854,39.29292 L29.7829244,39.29292 C29.2143878,39.29292 28.7541439,38.83392 28.7541439,38.26782 C28.7541439,37.70082 29.2143878,37.24182 29.7829244,37.24182 L53.1154854,37.24182 C53.6831195,37.24182 54.1433634,37.70082 54.1433634,38.26782 C54.1433634,38.83392 53.6831195,39.29292 53.1154854,39.29292" id="Fill-16" fill="#231F20"></path>
                    <path d="M53.1154854,47.49534 L29.7829244,47.49534 C29.2143878,47.49534 28.7541439,47.03634 28.7541439,46.47024 C28.7541439,45.90324 29.2143878,45.44424 29.7829244,45.44424 L53.1154854,45.44424 C53.6831195,45.44424 54.1433634,45.90324 54.1433634,46.47024 C54.1433634,47.03634 53.6831195,47.49534 53.1154854,47.49534" id="Fill-18" fill="#231F20"></path>
                    <polygon id="Fill-20" fill="#FFFFFF" points="47.7872146 60.417 0.658239024 60.417 0.658239024 25.9137 35.3615317 25.9137 41.9700927 32.6466 47.7872146 38.5371"></polygon>
                    <path d="M1.62005854,60.417 L46.9775463,60.417 L46.9775463,38.0772 L34.5229854,26.7552 L1.62005854,26.7552 L1.62005854,60.417 Z M47.7870341,62.1 L0.810570732,62.1 C0.362960976,62.1 0.000180487805,61.7238 0.000180487805,61.2585 L0.000180487805,25.9137 C0.000180487805,25.4493 0.362960976,25.0731 0.810570732,25.0731 L34.8280098,25.0731 C35.0247415,25.0731 35.2133512,25.1469 35.3613512,25.2801 L48.321278,37.062 C48.4963512,37.2222 48.5974244,37.4535 48.5974244,37.6956 L48.5974244,61.2585 C48.5974244,61.7238 48.2346439,62.1 47.7870341,62.1 Z" id="Fill-22" fill="#231F20"></path>
                    <path d="M47.7872146,38.5371 L34.8281902,38.5371 C34.3805805,38.5371 34.0178,38.1609 34.0178,37.6956 L34.0178,25.9137 L35.637678,25.9137 L35.637678,36.8541 L47.7872146,36.8541 L47.7872146,38.5371 Z" id="Fill-24" fill="#231F20"></path>
                    <path d="M25.3196415,34.32951 L11.0223,34.32951 C10.5746902,34.32951 10.2119098,33.95331 10.2119098,33.48801 C10.2119098,33.02271 10.5746902,32.64651 11.0223,32.64651 L25.3196415,32.64651 C25.7672512,32.64651 26.1291293,33.02271 26.1291293,33.48801 C26.1291293,33.95331 25.7672512,34.32951 25.3196415,34.32951" id="Fill-26" fill="#231F20"></path>
                    <path d="M25.3196415,41.06169 L11.0223,41.06169 C10.5746902,41.06169 10.2119098,40.68549 10.2119098,40.22019 C10.2119098,39.75489 10.5746902,39.37869 11.0223,39.37869 L25.3196415,39.37869 C25.7672512,39.37869 26.1291293,39.75489 26.1291293,40.22019 C26.1291293,40.68549 25.7672512,41.06169 25.3196415,41.06169" id="Fill-28" fill="#231F20"></path>
                    <path d="M37.5747634,54.52614 L11.0223,54.52614 C10.5746902,54.52614 10.2119098,54.14994 10.2119098,53.68464 C10.2119098,53.21934 10.5746902,52.84314 11.0223,52.84314 L37.5747634,52.84314 C38.0223732,52.84314 38.3842512,53.21934 38.3842512,53.68464 C38.3842512,54.14994 38.0223732,54.52614 37.5747634,54.52614" id="Fill-30" fill="#231F20"></path>
                    <path d="M37.5747634,47.79396 L11.0223,47.79396 C10.5746902,47.79396 10.2119098,47.41776 10.2119098,46.95246 C10.2119098,46.48716 10.5746902,46.11096 11.0223,46.11096 L37.5747634,46.11096 C38.0223732,46.11096 38.3842512,46.48716 38.3842512,46.95246 C38.3842512,47.41776 38.0223732,47.79396 37.5747634,47.79396" id="Fill-32" fill="#231F20"></path>
                </g>
            </g>
        </g>
    </g>
</svg>