<?xml version="1.0" encoding="iso-8859-1"?>
<!-- Generator: Adobe Illustrator 19.0.0, SVG Export Plug-In . SVG Version: 6.00 Build 0)  -->
<svg xmlns="http://www.w3.org/2000/svg" xmlns:xlink="http://www.w3.org/1999/xlink" version="1.1" id="Capa_1" x="0px" y="0px" viewBox="0 0 512 512" style="enable-background:new 0 0 512 512;" xml:space="preserve" width="512px" height="512px">
<g>
	<g>
		<path d="M363.501,154.089H216.539c-4.142,0-7.5,3.358-7.5,7.5c0,4.142,3.358,7.5,7.5,7.5h146.962c4.143,0,7.5-3.358,7.5-7.5    C371.001,157.447,367.643,154.089,363.501,154.089z" fill="#FFFFFF"/>
	</g>
</g>
<g>
	<g>
		<path d="M187.539,154.089h-39.038c-4.142,0-7.5,3.358-7.5,7.5c0,4.142,3.358,7.5,7.5,7.5h39.038c4.142,0,7.5-3.358,7.5-7.5    C195.039,157.447,191.681,154.089,187.539,154.089z" fill="#FFFFFF"/>
	</g>
</g>
<g>
	<g>
		<path d="M177.001,209.187h-28.5c-4.142,0-7.5,3.358-7.5,7.5c0,4.142,3.358,7.5,7.5,7.5h28.5c4.142,0,7.5-3.358,7.5-7.5    C184.501,212.545,181.143,209.187,177.001,209.187z" fill="#FFFFFF"/>
	</g>
</g>
<g>
	<g>
		<path d="M216.539,230.189h-68.038c-4.142,0-7.5,3.358-7.5,7.5c0,4.142,3.358,7.5,7.5,7.5h68.038c4.142,0,7.5-3.358,7.5-7.5    C224.039,233.547,220.681,230.189,216.539,230.189z" fill="#FFFFFF"/>
	</g>
</g>
<g>
	<g>
		<path d="M345.074,490.91H15V361.9c0-4.142-3.358-7.5-7.5-7.5S0,357.758,0,361.9v136.51c0,4.142,3.358,7.5,7.5,7.5h337.574    c4.142,0,7.5-3.358,7.5-7.5C352.574,494.268,349.216,490.91,345.074,490.91z" fill="#FFFFFF"/>
	</g>
</g>
<g>
	<g>
		<g>
			<path d="M511.938,190.361C511.946,190.424,511.957,190.512,511.938,190.361L511.938,190.361z" fill="#FFFFFF"/>
			<path d="M511.934,190.327c0.002,0.015,0.003,0.022,0.004,0.034C511.934,190.327,511.931,190.301,511.934,190.327z" fill="#FFFFFF"/>
			<path d="M511.934,190.327c-0.467-3.693-3.712-6.557-7.434-6.557h-81.46V98.93c0-4.142-3.358-7.5-7.5-7.5     c-4.142,0-7.5,3.358-7.5,7.5v152.147L256,359.882L103.96,251.077V21.09h304.08v49.98c0,4.142,3.358,7.5,7.5,7.5     c4.142,0,7.5-3.358,7.5-7.5V13.59c0-4.142-3.358-7.5-7.5-7.5H96.46c-4.142,0-7.5,3.358-7.5,7.5v170.18H7.5     c-3.72,0-6.967,2.867-7.434,6.557C0.027,190.637,0,190.95,0,191.27V334.1c0,4.142,3.358,7.5,7.5,7.5s7.5-3.358,7.5-7.5V205.86     l236.635,169.344c2.61,1.868,6.119,1.868,8.729,0L497,205.86v285.05H372.926c-4.142,0-7.5,3.358-7.5,7.5     c0,4.142,3.358,7.5,7.5,7.5H504.5c4.142,0,7.5-3.358,7.5-7.5V191.27C512,190.95,511.973,190.637,511.934,190.327z M88.96,240.343     L30.868,198.77H88.96V240.343z M423.04,240.343V198.77h58.092L423.04,240.343z" fill="#FFFFFF"/>
		</g>
	</g>
</g>
<g>
	<g>
		<path d="M461.298,401.88h-85.517c-4.142,0-7.5,3.358-7.5,7.5v49.314c0,4.142,3.358,7.5,7.5,7.5h85.517c4.142,0,7.5-3.358,7.5-7.5    V409.38C468.798,405.238,465.44,401.88,461.298,401.88z M453.798,451.194h-70.517V416.88h70.517V451.194z" fill="#FFFFFF"/>
	</g>
</g>
<g>
	<g>
		<path d="M461.297,373.287H429c-4.142,0-7.5,3.358-7.5,7.5c0,4.142,3.358,7.5,7.5,7.5h32.297c4.142,0,7.5-3.358,7.5-7.5    C468.797,376.645,465.439,373.287,461.297,373.287z" fill="#FFFFFF"/>
	</g>
</g>
<g>
	<g>
		<path d="M461.297,354.018H452c-4.142,0-7.5,3.358-7.5,7.5c0,4.142,3.358,7.5,7.5,7.5h9.297c4.142,0,7.5-3.358,7.5-7.5    C468.797,357.376,465.439,354.018,461.297,354.018z" fill="#FFFFFF"/>
	</g>
</g>
<g>
	<g>
		<path d="M155.474,451.194H53.454c-4.142,0-7.5,3.358-7.5,7.5c0,4.142,3.358,7.5,7.5,7.5h102.02c4.142,0,7.5-3.358,7.5-7.5    C162.974,454.552,159.616,451.194,155.474,451.194z" fill="#FFFFFF"/>
	</g>
</g>
<g>
	<g>
		<path d="M221.489,50.011h-23.334c-4.142,0-7.5,3.358-7.5,7.5c0,4.142,3.358,7.5,7.5,7.5h15.834v38.97    c0,3.716-3.023,6.739-6.739,6.739h-1.602c-3.716,0-6.739-3.023-6.739-6.739c0-4.142-3.358-7.5-7.5-7.5c-4.142,0-7.5,3.358-7.5,7.5    c0,11.987,9.752,21.739,21.739,21.739h1.602c11.987,0,21.739-9.752,21.739-21.739v-46.47    C228.989,53.369,225.631,50.011,221.489,50.011z" fill="#FFFFFF"/>
	</g>
</g>
<g>
	<g>
		<path d="M254.424,50.012c-12.48,0-22.633,10.153-22.633,22.633v30.442c0,12.48,10.153,22.633,22.633,22.633    s22.633-10.153,22.633-22.633V72.645C277.057,60.165,266.904,50.012,254.424,50.012z M262.057,103.087    c0,4.209-3.424,7.633-7.633,7.633s-7.633-3.424-7.633-7.633V72.645c0-4.209,3.424-7.633,7.633-7.633s7.633,3.424,7.633,7.633    V103.087z" fill="#FFFFFF"/>
	</g>
</g>
<g>
	<g>
		<path d="M317.934,81.292c1.809-3.082,2.864-6.657,2.864-10.482c0-11.468-9.331-20.799-20.799-20.799h-12.521    c-4.142,0-7.5,3.358-7.5,7.5v60.709c0,4.142,3.358,7.5,7.5,7.5h16.057c13.54,0,24.556-11.016,24.556-24.555    C328.091,93.001,324.083,85.759,317.934,81.292z M294.978,65.011h5.021c3.197,0,5.799,2.602,5.799,5.8    c0,3.197-2.602,5.799-5.799,5.799h-5.021V65.011z M303.535,110.72h-8.557V91.61h5.021h3.536c5.269,0,9.556,4.287,9.556,9.556    C313.09,106.434,308.804,110.72,303.535,110.72z" fill="#FFFFFF"/>
	</g>
</g>
<g>
	<g>
		<path d="M313.298,195.746c-21.416,0-38.84,17.424-38.84,38.84c0,21.417,17.424,38.84,38.84,38.84    c21.416,0,38.84-17.424,38.84-38.84C352.138,213.17,334.714,195.746,313.298,195.746z M313.298,258.426    c-13.145,0-23.84-10.695-23.84-23.84c0-13.145,10.695-23.84,23.84-23.84c13.145,0,23.84,10.695,23.84,23.84    C337.138,247.732,326.443,258.426,313.298,258.426z" fill="#FFFFFF"/>
	</g>
</g>
<g>
</g>
<g>
</g>
<g>
</g>
<g>
</g>
<g>
</g>
<g>
</g>
<g>
</g>
<g>
</g>
<g>
</g>
<g>
</g>
<g>
</g>
<g>
</g>
<g>
</g>
<g>
</g>
<g>
</g>
</svg>
