<svg xmlns="http://www.w3.org/2000/svg" width="1" height="1"><rect id="backgroundrect" width="100%" height="100%" x="0" y="0" fill="none" stroke="none" class="" style=""/><g class="currentLayer" style=""><title>Layer 1</title><g fill="#fafafa" stroke="#5c5c68" stroke-linecap="round" stroke-linejoin="round" stroke-miterlimit="10" id="svg_1" class="" fill-opacity="1" stroke-opacity="1" opacity="1"><path d="M38.97745609283447,92.19047546386719 h-23.386473655700684 c-8.575040340423584,0 -15.590982437133789,-5.185714244842529 -15.590982437133789,-11.523809432983398 v-34.571428298950195 c0,-6.33809518814087 7.015942096710205,-11.523809432983398 15.590982437133789,-11.523809432983398 h148.114333152771 c8.575040340423584,0 15.590982437133789,5.185714244842529 15.590982437133789,11.523809432983398 v34.571428298950195 c0,6.33809518814087 -7.015942096710205,11.523809432983398 -15.590982437133789,11.523809432983398 h-23.386473655700684 M38.97745609283447,23.047618865966797 v-23.047618865966797 h77.95491218566895 l23.386473655700684,17.285714149475098 v5.761904716491699 " id="svg_2" fill="#fafafa" fill-opacity="1" stroke="#5c5c68" stroke-opacity="1" opacity="1"/><path d="M38.97745609283447,74.90476131439209 h101.34138584136963 v46.095237731933594 h-101.34138584136963 z" id="svg_3" fill="#fafafa" fill-opacity="1" stroke="#5c5c68" stroke-opacity="1" opacity="1"/><circle cx="23.386473655700684" cy="51.85714244842529" r="5.761904716491699" id="svg_4" fill="#fafafa" fill-opacity="1" stroke="#5c5c68" stroke-opacity="1" opacity="1"/><path d="M54.56843852996826,86.42857074737549 h70.15942096710205 M54.56843852996826,97.95238018035889 h70.15942096710205 M54.56843852996826,109.47618961334229 h70.15942096710205 M116.93236827850342,0 v17.285714149475098 h23.386473655700684 " id="svg_5" fill="#fafafa" fill-opacity="1" stroke="#5c5c68" stroke-opacity="1" opacity="1"/></g></g></svg>