<?xml version="1.0" encoding="UTF-8"?>
<svg width="42px" height="41px" viewBox="0 0 42 41" version="1.1" xmlns="http://www.w3.org/2000/svg" xmlns:xlink="http://www.w3.org/1999/xlink">
    <!-- Generator: Sketch 51.2 (57519) - http://www.bohemiancoding.com/sketch -->
    <title>Page 1 Copy 12</title>
    <desc>Created with Sketch.</desc>
    <defs></defs>
    <g id="Page-1" stroke="none" stroke-width="1" fill="none" fill-rule="evenodd">
        <g id="1-tablet" transform="translate(-18.000000, -1179.000000)" fill="#5C5C68">
            <g id="Page-1-Copy-12" transform="translate(18.000000, 1179.000000)">
                <path d="M1.3906842,28.5217391 C1.19320704,28.5217391 1.00059728,28.4375652 0.865700914,28.2824348 C0.673786494,28.0612174 0.640410074,27.7446957 0.782955204,27.4886957 L3.98083352,21.7286957 C1.40876309,19.4636522 0,16.3373913 0,12.8605217 C0,5.76973913 6.99792289,0 15.6,0 C24.2013818,0 31.2,5.76973913 31.2,12.8605217 L29.8093158,12.8605217 C29.8093158,6.53634783 23.4351148,1.39130435 15.6,1.39130435 C7.76488522,1.39130435 1.3906842,6.53634783 1.3906842,12.8605217 C1.3906842,16.1043478 2.77997771,19.0031304 5.30198351,21.021913 C5.56690885,21.234087 5.63991977,21.6069565 5.47512369,21.9026087 L2.92878092,26.4890435 L10.1805037,23.698087 C10.3251348,23.6431304 10.4843682,23.6375652 10.6331714,23.6827826 C11.2687141,23.8761739 12.4521863,24.2372174 13.3060664,24.354087 L13.1169334,25.7328696 C12.2547092,25.6146087 11.1595454,25.296 10.4565545,25.0831304 L1.64031201,28.4758261 C1.55895699,28.5071304 1.47482059,28.5217391 1.3906842,28.5217391" id="Fill-1"></path>
                <path d="M33.5078408,36.7269888 C33.5970084,36.7269888 33.6861761,36.7440809 33.7710977,36.7775528 L39.083651,38.9169071 L37.0943627,35.0412859 C36.9393808,34.7400386 37.0172256,34.3704232 37.2804825,34.1589091 C39.4424447,32.4176571 40.5846401,30.1251866 40.5846401,27.5307566 C40.5846401,22.0755457 35.1878729,17.4678153 28.8003538,17.4678153 C22.4121271,17.4678153 17.0153599,22.0755457 17.0153599,27.5307566 C17.0153599,33.106324 22.2415762,37.8166067 28.4274065,37.8166067 L28.4281142,37.8166067 C30.0826699,37.8166067 31.6947648,37.4704928 33.2205227,36.7882353 C33.3118134,36.7476417 33.4094733,36.7269888 33.5078408,36.7269888 M40.5846401,41 C40.4961801,41 40.4070125,40.9836201 40.3213832,40.949436 L33.5177483,38.2104359 C31.8922075,38.8948298 30.1817451,39.2409437 28.4281142,39.2409437 L28.4274065,39.2409437 C21.4744511,39.2409437 15.6,33.8783147 15.6,27.5307566 C15.6,21.303555 21.645002,16.0434783 28.8003538,16.0434783 C35.954998,16.0434783 42,21.303555 42,27.5307566 C42,30.3879768 40.8309127,32.9218724 38.6109208,34.8931549 L41.2130599,39.9609461 C41.3489345,40.2251606 41.3071813,40.5463486 41.1083233,40.7671209 C40.9717411,40.9181006 40.7799598,41 40.5846401,41" id="Fill-3"></path>
            </g>
        </g>
    </g>
</svg>