<?xml version="1.0" encoding="UTF-8"?>
<svg width="42px" height="28px" viewBox="0 0 42 28" version="1.1" xmlns="http://www.w3.org/2000/svg" xmlns:xlink="http://www.w3.org/1999/xlink">
    <!-- Generator: Sketch 51.2 (57519) - http://www.bohemiancoding.com/sketch -->
    <title>Group 13 Copy</title>
    <desc>Created with Sketch.</desc>
    <defs>
        <polygon id="path-1" points="0 28 42 28 42 0 0 0"></polygon>
    </defs>
    <g id="Page-1" stroke="none" stroke-width="1" fill="none" fill-rule="evenodd">
        <g id="1-tablet" transform="translate(-18.000000, -946.000000)">
            <g id="Group-13-Copy" transform="translate(18.000000, 946.000000)">
                <path d="M1.4,26.6 L40.6,26.6 L40.6,20.2608 C37.4542,19.9115 35,17.2375 35,14 C35,10.7625 37.4542,8.0885 40.6,7.7392 L40.6,1.4 L1.4,1.4 L1.4,7.7392 C4.5458,8.0885 7,10.7625 7,14 C7,17.2375 4.5458,19.9115 1.4,20.2608 L1.4,26.6 Z M41.3,28 L0.7,28 C0.3129,28 0,27.6871 0,27.3 L0,19.6 C0,19.2129 0.3129,18.9 0.7,18.9 C3.4013,18.9 5.6,16.7013 5.6,14 C5.6,11.2987 3.4013,9.1 0.7,9.1 C0.3129,9.1 0,8.7871 0,8.4 L0,0.7 C0,0.3129 0.3129,0 0.7,0 L41.3,0 C41.6871,0 42,0.3129 42,0.7 L42,8.4 C42,8.7871 41.6871,9.1 41.3,9.1 C38.5987,9.1 36.4,11.2987 36.4,14 C36.4,16.7013 38.5987,18.9 41.3,18.9 C41.6871,18.9 42,19.2129 42,19.6 L42,27.3 C42,27.6871 41.6871,28 41.3,28 Z" id="Fill-1" fill="#525353"></path>
                <mask id="mask-2" fill="white">
                    <use xlink:href="#path-1"></use>
                </mask>
                <g id="Clip-4"></g>
                <path d="M12.6007,21 L26.5993,21 L26.5993,7.0014 L12.6007,7.0014 L12.6007,21 Z M27.2993,22.4 L11.9007,22.4 C11.5136,22.4 11.2007,22.0871 11.2007,21.7 L11.2007,6.3014 C11.2007,5.9143 11.5136,5.6014 11.9007,5.6014 L27.2993,5.6014 C27.6864,5.6014 27.9993,5.9143 27.9993,6.3014 L27.9993,21.7 C27.9993,22.0871 27.6864,22.4 27.2993,22.4 Z" id="Fill-3" fill="#525353" mask="url(#mask-2)"></path>
                <polygon id="Fill-5" fill="#525353" mask="url(#mask-2)" points="32.2 4.2 33.6 4.2 33.6 2.8 32.2 2.8"></polygon>
                <polygon id="Fill-6" fill="#525353" mask="url(#mask-2)" points="32.2 8.4 33.6 8.4 33.6 7 32.2 7"></polygon>
                <polygon id="Fill-7" fill="#525353" mask="url(#mask-2)" points="32.2 12.6 33.6 12.6 33.6 11.2 32.2 11.2"></polygon>
                <polygon id="Fill-8" fill="#525353" mask="url(#mask-2)" points="32.2 16.8 33.6 16.8 33.6 15.4 32.2 15.4"></polygon>
                <polygon id="Fill-9" fill="#525353" mask="url(#mask-2)" points="32.2 21 33.6 21 33.6 19.6 32.2 19.6"></polygon>
                <polygon id="Fill-10" fill="#525353" mask="url(#mask-2)" points="32.2 25.2 33.6 25.2 33.6 23.8 32.2 23.8"></polygon>
                <path d="M23.1,12.6 L16.1,12.6 C15.7129,12.6 15.4,12.2871 15.4,11.9 C15.4,11.5129 15.7129,11.2 16.1,11.2 L23.1,11.2 C23.4871,11.2 23.8,11.5129 23.8,11.9 C23.8,12.2871 23.4871,12.6 23.1,12.6" id="Fill-11" fill="#525353" mask="url(#mask-2)"></path>
                <path d="M23.1,16.8 L16.1,16.8 C15.7129,16.8 15.4,16.4871 15.4,16.1 C15.4,15.7129 15.7129,15.4 16.1,15.4 L23.1,15.4 C23.4871,15.4 23.8,15.7129 23.8,16.1 C23.8,16.4871 23.4871,16.8 23.1,16.8" id="Fill-12" fill="#525353" mask="url(#mask-2)"></path>
            </g>
        </g>
    </g>
</svg>