<?xml version="1.0" encoding="UTF-8"?>
<svg width="40px" height="25px" viewBox="0 0 40 25" version="1.1" xmlns="http://www.w3.org/2000/svg" xmlns:xlink="http://www.w3.org/1999/xlink">
    <!-- Generator: Sketch 51.2 (57519) - http://www.bohemiancoding.com/sketch -->
    <title>Group 6 Copy</title>
    <desc>Created with Sketch.</desc>
    <defs>
        <polygon id="path-1" points="0 0.6940625 39.3054893 0.6940625 39.3054893 14.583125 0 14.583125"></polygon>
    </defs>
    <g id="Page-1" stroke="none" stroke-width="1" fill="none" fill-rule="evenodd">
        <g id="1-tablet" transform="translate(-19.000000, -626.000000)">
            <g id="Group-6-Copy" transform="translate(19.000000, 626.000000)">
                <g id="Group-3" transform="translate(0.000000, 10.416667)">
                    <mask id="mask-2" fill="white">
                        <use xlink:href="#path-1"></use>
                    </mask>
                    <g id="Clip-2"></g>
                    <path d="M1.67621053,11.7004861 C1.39761404,11.9171528 1.35480702,12.3574306 1.46077193,12.6914583 C1.49796491,12.8095139 1.64814035,13.1942361 2.00392982,13.1942361 L37.3028772,13.1942361 C37.6572632,13.1942361 37.8074386,12.808125 37.8446316,12.689375 C37.9505965,12.3560417 37.9084912,11.9171528 37.6298947,11.7004861 L19.6530526,2.176875 L1.67621053,11.7004861 Z M37.3028772,14.583125 L2.00392982,14.583125 C1.14498246,14.583125 0.406035088,14.0039583 0.121824561,13.1067361 C-0.194666667,12.1115972 0.119017544,11.0803472 0.901473684,10.5414583 C0.92322807,10.5261806 0.947087719,10.5115972 0.970947368,10.4990972 L19.3225263,0.776875 C19.5288421,0.666458333 19.7772632,0.666458333 19.9842807,0.776875 L38.3351579,10.4990972 C38.3590175,10.5115972 38.3828772,10.5261806 38.4053333,10.5407639 C39.186386,11.0789583 39.4993684,12.1095139 39.1842807,13.1046528 C38.8993684,14.0025694 38.1611228,14.583125 37.3028772,14.583125 Z" id="Fill-1" fill="#525353" mask="url(#mask-2)"></path>
                </g>
                <path d="M19.653193,12.5 C19.2651228,12.5 18.9514386,12.1895833 18.9514386,11.8055556 C18.9514386,10.3208333 19.0833684,8.88125 20.0405614,8.40625 C20.2356491,8.31041667 20.4279298,8.21875 20.616,8.12916667 C22.2040702,7.37430556 23.1619649,6.91805556 23.1619649,4.86111111 C23.1619649,2.94652778 21.5879298,1.38888889 19.653193,1.38888889 C17.7184561,1.38888889 16.1444211,2.94652778 16.1444211,4.86111111 C16.1444211,5.24513889 15.8307368,5.55555556 15.4426667,5.55555556 C15.0545965,5.55555556 14.7409123,5.24513889 14.7409123,4.86111111 C14.7409123,2.18125 16.9451228,0 19.653193,0 C22.3612632,0 24.5654737,2.18125 24.5654737,4.86111111 C24.5654737,7.79166667 22.8665263,8.6 21.2237193,9.38125 C21.0419649,9.46736111 20.8567018,9.55625 20.6686316,9.64930556 C20.6040702,9.70416667 20.3549474,10.0430556 20.3549474,11.8055556 C20.3549474,12.1895833 20.0412632,12.5 19.653193,12.5" id="Fill-4" fill="#525353"></path>
            </g>
        </g>
    </g>
</svg>