<?xml version="1.0" encoding="UTF-8"?>
<svg width="19px" height="33px" viewBox="0 0 19 33" version="1.1" xmlns="http://www.w3.org/2000/svg" xmlns:xlink="http://www.w3.org/1999/xlink">
    <!-- Generator: Sketch 51.2 (57519) - http://www.bohemiancoding.com/sketch -->
    <title>Page 1 Copy 6</title>
    <desc>Created with Sketch.</desc>
    <defs></defs>
    <g id="Page-1" stroke="none" stroke-width="1" fill="none" fill-rule="evenodd">
        <g id="1-tablet" transform="translate(-29.000000, -866.000000)">
            <g id="Page-1-Copy-6" transform="translate(29.000000, 866.000000)">
                <path d="M14.725,20.9 L17.9296469,20.9 C17.8639188,10.4621 15.9540625,3.33025 14.725,1.54055 L14.725,20.9 Z M14.190625,33 C13.8951156,33 13.65625,32.75415 13.65625,32.45 L13.65625,0.55 C13.65625,0.24585 13.8951156,0 14.190625,0 C16.9431906,0 19,11.3245 19,21.45 C19,21.75415 18.7611344,22 18.465625,22 L14.725,22 L14.725,32.45 C14.725,32.75415 14.4861344,33 14.190625,33 Z" id="Fill-1" fill="#5C5C68"></path>
                <path d="M14.725,20.9 L17.9296469,20.9 C17.8639188,10.4621 15.9540625,3.33025 14.725,1.54055 L14.725,20.9 Z M14.190625,33 C13.8951156,33 13.65625,32.75415 13.65625,32.45 L13.65625,0.55 C13.65625,0.24585 13.8951156,0 14.190625,0 C16.9431906,0 19,11.3245 19,21.45 C19,21.75415 18.7611344,22 18.465625,22 L14.725,22 L14.725,32.45 C14.725,32.75415 14.4861344,33 14.190625,33 Z" id="Stroke-3"></path>
                <path d="M4.75,33 C4.42165625,33 4.15625,32.75415 4.15625,32.45 L4.15625,0.55 C4.15625,0.24585 4.42165625,0 4.75,0 C5.07834375,0 5.34375,0.24585 5.34375,0.55 L5.34375,32.45 C5.34375,32.75415 5.07834375,33 4.75,33" id="Fill-5" fill="#5C5C68"></path>
                <path d="M4.75,33 C4.42165625,33 4.15625,32.75415 4.15625,32.45 L4.15625,0.55 C4.15625,0.24585 4.42165625,0 4.75,0 C5.07834375,0 5.34375,0.24585 5.34375,0.55 L5.34375,32.45 C5.34375,32.75415 5.07834375,33 4.75,33 Z" id="Stroke-7"></path>
                <path d="M4.75,13.2 C2.13063889,13.2 0,10.97965 0,8.25 L0,0.55 C0,0.24585 0.235916667,0 0.527777778,0 C0.819638889,0 1.05555556,0.24585 1.05555556,0.55 L1.05555556,8.25 C1.05555556,10.37245 2.71330556,12.1 4.75,12.1 C6.78669444,12.1 8.44444444,10.37245 8.44444444,8.25 L8.44444444,0.55 C8.44444444,0.24585 8.68036111,0 8.97222222,0 C9.26408333,0 9.5,0.24585 9.5,0.55 L9.5,8.25 C9.5,10.97965 7.36936111,13.2 4.75,13.2" id="Fill-9" fill="#5C5C68"></path>
                <path d="M4.75,13.2 C2.13063889,13.2 0,10.97965 0,8.25 L0,0.55 C0,0.24585 0.235916667,0 0.527777778,0 C0.819638889,0 1.05555556,0.24585 1.05555556,0.55 L1.05555556,8.25 C1.05555556,10.37245 2.71330556,12.1 4.75,12.1 C6.78669444,12.1 8.44444444,10.37245 8.44444444,8.25 L8.44444444,0.55 C8.44444444,0.24585 8.68036111,0 8.97222222,0 C9.26408333,0 9.5,0.24585 9.5,0.55 L9.5,8.25 C9.5,10.97965 7.36936111,13.2 4.75,13.2 Z" id="Stroke-11"></path>
            </g>
        </g>
    </g>
</svg>