<?xml version="1.0" encoding="UTF-8"?>
<svg width="47px" height="25px" viewBox="0 0 47 25" version="1.1" xmlns="http://www.w3.org/2000/svg" xmlns:xlink="http://www.w3.org/1999/xlink">
    <!-- Generator: Sketch 51.2 (57519) - http://www.bohemiancoding.com/sketch -->
    <title>Page 1 Copy 9</title>
    <desc>Created with Sketch.</desc>
    <defs></defs>
    <g id="Page-1" stroke="none" stroke-width="1" fill="none" fill-rule="evenodd">
        <g id="1-tablet" transform="translate(-15.000000, -1031.000000)" fill="#5C5C68">
            <g id="Page-1-Copy-9" transform="translate(15.000000, 1031.000000)">
                <path d="M46.1793651,19.5945946 L40.4349206,19.5945946 C39.9811095,19.5945946 39.6142857,19.2925676 39.6142857,18.9189189 C39.6142857,18.5452703 39.9811095,18.2432432 40.4349206,18.2432432 L46.1793651,18.2432432 C46.6331762,18.2432432 47,18.5452703 47,18.9189189 C47,19.2925676 46.6331762,19.5945946 46.1793651,19.5945946" id="Fill-1"></path>
                <path d="M31.4497143,19.5945946 L13.536,19.5945946 C13.105292,19.5945946 12.7571429,19.2925676 12.7571429,18.9189189 C12.7571429,18.5452703 13.105292,18.2432432 13.536,18.2432432 L31.4497143,18.2432432 C31.8804223,18.2432432 32.2285714,18.5452703 32.2285714,18.9189189 C32.2285714,19.2925676 31.8804223,19.5945946 31.4497143,19.5945946" id="Fill-3"></path>
                <path d="M44.8699507,20.2702703 C44.4346335,20.2702703 44.0827586,19.9217775 44.0827586,19.4906445 L44.0827586,11.6943867 C44.0827586,10.4922037 42.9350325,9.35550936 41.7211823,9.35550936 L38.5724138,9.35550936 C38.274068,9.35550936 38.0016995,9.18866944 37.8678768,8.9243763 L34.1499685,1.55925156 L16.9765852,1.55925156 L12.4825054,8.97739085 C12.3408108,9.21127859 12.0849734,9.35550936 11.8078818,9.35550936 L3.93596059,9.35550936 C2.72211034,9.35550936 1.57438424,10.4922037 1.57438424,11.6943867 L1.57438424,18.7110187 L3.93596059,18.7110187 C4.37127783,18.7110187 4.72315271,19.0595114 4.72315271,19.4906445 C4.72315271,19.9217775 4.37127783,20.2702703 3.93596059,20.2702703 L0.787192118,20.2702703 C0.351874877,20.2702703 0,19.9217775 0,19.4906445 L0,11.6943867 C0,9.61824324 1.83966798,7.7962578 3.93596059,7.7962578 L11.362331,7.7962578 L15.8564108,0.378118503 C15.9981054,0.144230769 16.2539429,0 16.5310345,0 L34.6364532,0 C34.934799,0 35.2071675,0.166839917 35.3409901,0.431133056 L39.0588985,7.7962578 L41.7211823,7.7962578 C43.8174749,7.7962578 45.6571429,9.61824324 45.6571429,11.6943867 L45.6571429,19.4906445 C45.6571429,19.9217775 45.305268,20.2702703 44.8699507,20.2702703" id="Fill-5"></path>
                <path d="M16.9532021,9.45945946 C16.8273194,9.45945946 16.6989189,9.43074324 16.5789107,9.37077703 C16.1643367,9.16131757 15.9956537,8.65456081 16.2029407,8.23733108 L18.7205965,3.16976351 C18.8632636,2.88344595 19.1536333,2.7027027 19.4716971,2.7027027 L21.9893528,2.7027027 C22.4534407,2.7027027 22.8285714,3.08023649 22.8285714,3.5472973 C22.8285714,4.01435811 22.4534407,4.39189189 21.9893528,4.39189189 L19.9903342,4.39189189 L17.705142,8.99239865 C17.5574395,9.28885135 17.2611954,9.45945946 16.9532021,9.45945946" id="Fill-7"></path>
                <path d="M36.2571429,15.7335907 C34.1415673,15.7335907 32.4204082,17.4656371 32.4204082,19.5945946 C32.4204082,21.7235521 34.1415673,23.4555985 36.2571429,23.4555985 C38.3727184,23.4555985 40.0938776,21.7235521 40.0938776,19.5945946 C40.0938776,17.4656371 38.3727184,15.7335907 36.2571429,15.7335907 M36.2571429,25 C33.295951,25 30.8857143,22.5745174 30.8857143,19.5945946 C30.8857143,16.6146718 33.295951,14.1891892 36.2571429,14.1891892 C39.2183347,14.1891892 41.6285714,16.6146718 41.6285714,19.5945946 C41.6285714,22.5745174 39.2183347,25 36.2571429,25" id="Fill-9"></path>
                <path d="M8.05714286,15.7335907 C5.94156735,15.7335907 4.22040816,17.4656371 4.22040816,19.5945946 C4.22040816,21.7235521 5.94156735,23.4555985 8.05714286,23.4555985 C10.1727184,23.4555985 11.8938776,21.7235521 11.8938776,19.5945946 C11.8938776,17.4656371 10.1727184,15.7335907 8.05714286,15.7335907 M8.05714286,25 C5.09595102,25 2.68571429,22.5745174 2.68571429,19.5945946 C2.68571429,16.6146718 5.09595102,14.1891892 8.05714286,14.1891892 C11.0183347,14.1891892 13.4285714,16.6146718 13.4285714,19.5945946 C13.4285714,22.5745174 11.0183347,25 8.05714286,25" id="Fill-11"></path>
            </g>
        </g>
    </g>
</svg>