<?xml version="1.0" encoding="UTF-8"?>
<svg width="35px" height="29px" viewBox="0 0 35 29" version="1.1" xmlns="http://www.w3.org/2000/svg" xmlns:xlink="http://www.w3.org/1999/xlink">
    <!-- Generator: Sketch 51.2 (57519) - http://www.bohemiancoding.com/sketch -->
    <title>Group 9 Copy</title>
    <desc>Created with Sketch.</desc>
    <defs></defs>
    <g id="Page-1" stroke="none" stroke-width="1" fill="none" fill-rule="evenodd">
        <g id="1-tablet" transform="translate(-21.000000, -704.000000)" fill="#525353">
            <g id="Group-9-Copy" transform="translate(21.000000, 704.000000)">
                <path d="M15.1666667,24.36 L19.8333333,24.36 L19.8333333,20.3 C19.8333333,19.97926 20.0940833,19.72 20.4166667,19.72 L24.5,19.72 L24.5,15.08 L20.4166667,15.08 C20.0940833,15.08 19.8333333,14.82074 19.8333333,14.5 L19.8333333,10.44 L15.1666667,10.44 L15.1666667,14.5 C15.1666667,14.82074 14.9059167,15.08 14.5833333,15.08 L10.5,15.08 L10.5,19.72 L14.5833333,19.72 C14.9059167,19.72 15.1666667,19.97926 15.1666667,20.3 L15.1666667,24.36 Z M20.4166667,25.52 L14.5833333,25.52 C14.26075,25.52 14,25.26074 14,24.94 L14,20.88 L9.91666667,20.88 C9.59408333,20.88 9.33333333,20.62074 9.33333333,20.3 L9.33333333,14.5 C9.33333333,14.17926 9.59408333,13.92 9.91666667,13.92 L14,13.92 L14,9.86 C14,9.53926 14.26075,9.28 14.5833333,9.28 L20.4166667,9.28 C20.73925,9.28 21,9.53926 21,9.86 L21,13.92 L25.0833333,13.92 C25.4059167,13.92 25.6666667,14.17926 25.6666667,14.5 L25.6666667,20.3 C25.6666667,20.62074 25.4059167,20.88 25.0833333,20.88 L21,20.88 L21,24.94 C21,25.26074 20.73925,25.52 20.4166667,25.52 Z" id="Fill-1"></path>
                <path d="M4.08333333,5.8 C2.47508333,5.8 1.16666667,7.10094 1.16666667,8.7 L1.16666667,24.94 C1.16666667,26.53906 2.47508333,27.84 4.08333333,27.84 L30.9166667,27.84 C32.5249167,27.84 33.8333333,26.53906 33.8333333,24.94 L33.8333333,8.7 C33.8333333,7.10094 32.5249167,5.8 30.9166667,5.8 L4.08333333,5.8 Z M30.9166667,29 L4.08333333,29 C1.83225,29 0,27.17822 0,24.94 L0,8.7 C0,6.46178 1.83225,4.64 4.08333333,4.64 L30.9166667,4.64 C33.16775,4.64 35,6.46178 35,8.7 L35,24.94 C35,27.17822 33.16775,29 30.9166667,29 Z" id="Fill-3"></path>
                <path d="M22.75,5.8 C22.4274167,5.8 22.1666667,5.54074 22.1666667,5.22 L22.1666667,2.32 C22.1666667,1.68026 21.6434167,1.16 21,1.16 L14,1.16 C13.3565833,1.16 12.8333333,1.68026 12.8333333,2.32 L12.8333333,5.22 C12.8333333,5.54074 12.5725833,5.8 12.25,5.8 C11.9274167,5.8 11.6666667,5.54074 11.6666667,5.22 L11.6666667,2.32 C11.6666667,1.04052 12.7131667,0 14,0 L21,0 C22.2868333,0 23.3333333,1.04052 23.3333333,2.32 L23.3333333,5.22 C23.3333333,5.54074 23.0725833,5.8 22.75,5.8" id="Fill-5"></path>
            </g>
        </g>
    </g>
</svg>