<?xml version="1.0" encoding="UTF-8"?>
<svg width="42px" height="33px" viewBox="0 0 42 33" version="1.1" xmlns="http://www.w3.org/2000/svg" xmlns:xlink="http://www.w3.org/1999/xlink">
    <!-- Generator: Sketch 51.2 (57519) - http://www.bohemiancoding.com/sketch -->
    <title>Page 1 Copy 3</title>
    <desc>Created with Sketch.</desc>
    <defs>
        <polygon id="path-1" points="0 0 42 0 42 17.9801658 0 17.9801658"></polygon>
    </defs>
    <g id="Page-1" stroke="none" stroke-width="1" fill="none" fill-rule="evenodd">
        <g id="2" transform="translate(-496.000000, -178.000000)">
            <g id="Group-8" transform="translate(496.000000, 176.000000)">
                <g id="Page-1-Copy-3" transform="translate(0.000000, 2.000000)">
                    <path d="M35.9032258,33 L24.8181818,33 L24.8181818,22.4907692 L16.5043988,22.4907692 L16.5043988,33 L5.41935484,33 L5.41935484,18.4038462 C5.41935484,18.0815631 5.72904326,17.82 6.11217009,17.82 C6.49529692,17.82 6.80498534,18.0815631 6.80498534,18.4038462 L6.80498534,31.8323077 L15.1187683,31.8323077 L15.1187683,21.3230769 L26.2038123,21.3230769 L26.2038123,31.8323077 L34.5175953,31.8323077 L34.5175953,18.4038462 C34.5175953,18.0815631 34.8272837,17.82 35.2104106,17.82 C35.5935374,17.82 35.9032258,18.0815631 35.9032258,18.4038462 L35.9032258,33 Z" id="Fill-1" fill="#FFA602"></path>
                    <g id="Group-5">
                        <mask id="mask-2" fill="white">
                            <use xlink:href="#path-1"></use>
                        </mask>
                        <g id="Clip-4"></g>
                        <path d="M41.3,17.9800208 C41.1208,17.9800208 40.9416,17.9231807 40.8051,17.8100806 L21,1.40012162 L1.1949,17.8100806 C0.9212,18.0368609 0.4788,18.0368609 0.2051,17.8100806 C-0.0686,17.5833004 -0.0686,17.2167399 0.2051,16.9899597 L20.5051,0.169940197 C20.7788,-0.0568400658 21.2212,-0.0568400658 21.4949,0.169940197 L41.7949,16.9899597 C42.0686,17.2167399 42.0686,17.5833004 41.7949,17.8100806 C41.6584,17.9231807 41.4792,17.9800208 41.3,17.9800208" id="Fill-3" fill="#FFA602" mask="url(#mask-2)"></path>
                    </g>
                    <path d="M33.8709677,7.92 C33.4963548,7.92 33.1935484,7.6736 33.1935484,7.37 L33.1935484,2.42 L27.0967742,2.42 C26.7221613,2.42 26.4193548,2.1736 26.4193548,1.87 C26.4193548,1.5664 26.7221613,1.32 27.0967742,1.32 L34.5483871,1.32 L34.5483871,7.37 C34.5483871,7.6736 34.2455806,7.92 33.8709677,7.92" id="Fill-6" fill="#FFA602"></path>
                </g>
            </g>
        </g>
    </g>
</svg>