<?xml version="1.0" encoding="UTF-8"?>
<svg width="29px" height="36px" viewBox="0 0 29 36" version="1.1" xmlns="http://www.w3.org/2000/svg" xmlns:xlink="http://www.w3.org/1999/xlink">
    <!-- Generator: Sketch 51.2 (57519) - http://www.bohemiancoding.com/sketch -->
    <title>Page 1 Copy 10</title>
    <desc>Created with Sketch.</desc>
    <defs></defs>
    <g id="Page-1" stroke="none" stroke-width="1" fill="none" fill-rule="evenodd">
        <g id="1-tablet" transform="translate(-24.000000, -780.000000)" fill="#5C5C68">
            <g id="Page-1-Copy-10" transform="translate(24.000000, 780.000000)">
                <path d="M28.3695652,36 L0.630434783,36 C0.281804348,36 0,35.7311236 0,35.3984868 L0,5.32282472 C0,4.99018789 0.281804348,4.72131148 0.630434783,4.72131148 L8.19565217,4.72131148 C8.54428261,4.72131148 8.82608696,4.99018789 8.82608696,5.32282472 C8.82608696,5.65546154 8.54428261,5.92433796 8.19565217,5.92433796 L1.26086957,5.92433796 L1.26086957,34.7969735 L27.7391304,34.7969735 L27.7391304,5.92433796 L20.8043478,5.92433796 C20.4557174,5.92433796 20.173913,5.65546154 20.173913,5.32282472 C20.173913,4.99018789 20.4557174,4.72131148 20.8043478,4.72131148 L28.3695652,4.72131148 C28.7181957,4.72131148 29,4.99018789 29,5.32282472 L29,35.3984868 C29,35.7311236 28.7181957,36 28.3695652,36" id="Fill-1"></path>
                <path d="M8.69439072,8.26229508 L20.3056093,8.26229508 L20.3056093,4.72131148 L18.3704062,4.72131148 C18.0136838,4.72131148 17.7253385,4.4575082 17.7253385,4.13114754 C17.7253385,2.10334426 16.053323,1.18032787 14.5,1.18032787 C12.946677,1.18032787 11.2746615,2.10334426 11.2746615,4.13114754 C11.2746615,4.4575082 10.9863162,4.72131148 10.6295938,4.72131148 L8.69439072,4.72131148 L8.69439072,8.26229508 Z M20.950677,9.44262295 L8.04932302,9.44262295 C7.69260058,9.44262295 7.40425532,9.17881967 7.40425532,8.85245902 L7.40425532,4.13114754 C7.40425532,3.80478689 7.69260058,3.54098361 8.04932302,3.54098361 L10.0225851,3.54098361 C10.3257669,1.21396721 12.4248172,0 14.5,0 C16.5751828,0 18.6742331,1.21396721 18.9774149,3.54098361 L20.950677,3.54098361 C21.3073994,3.54098361 21.5957447,3.80478689 21.5957447,4.13114754 L21.5957447,8.85245902 C21.5957447,9.17881967 21.3073994,9.44262295 20.950677,9.44262295 Z" id="Fill-3"></path>
                <path d="M25.8986562,32.4590164 L3.10134378,32.4590164 C2.75115174,32.4590164 2.46808511,32.1889321 2.46808511,31.8548009 L2.46808511,7.68618267 C2.46808511,7.35205152 2.75115174,7.08196721 3.10134378,7.08196721 L8.16741321,7.08196721 C8.51760526,7.08196721 8.80067189,7.35205152 8.80067189,7.68618267 C8.80067189,8.02031382 8.51760526,8.29039813 8.16741321,8.29039813 L3.73460246,8.29039813 L3.73460246,31.2505855 L25.2653975,31.2505855 L25.2653975,8.29039813 L20.8325868,8.29039813 C20.4823947,8.29039813 20.1993281,8.02031382 20.1993281,7.68618267 C20.1993281,7.35205152 20.4823947,7.08196721 20.8325868,7.08196721 L25.8986562,7.08196721 C26.2488483,7.08196721 26.5319149,7.35205152 26.5319149,7.68618267 L26.5319149,31.8548009 C26.5319149,32.1889321 26.2488483,32.4590164 25.8986562,32.4590164" id="Fill-5"></path>
                <path d="M19.1276596,25.9672131 C19.1134681,25.9672131 19.0986596,25.966623 19.0838511,25.9654427 C18.8345745,25.9489192 18.6217021,25.7901751 18.5427234,25.5635664 L15.3533404,16.4142403 L12.2898298,23.249089 C12.1923404,23.4680261 11.9732979,23.6019848 11.716,23.6067059 C11.4661064,23.6037552 11.2433617,23.4574038 11.1501915,23.2355161 L9.1177234,18.3764119 L7.30059574,20.9835922 C7.18582979,21.1476474 6.99331915,21.2461986 6.78723404,21.2461986 L3.08510638,21.2461986 L3.08510638,20.065945 L6.45712766,20.065945 L8.74195745,16.7877905 C8.86906383,16.6060315 9.0887234,16.5074803 9.31948936,16.5287249 C9.54717021,16.5511497 9.74338298,16.6927801 9.82853191,16.8963739 L11.7425319,21.4745777 L14.8584894,14.5222937 C14.9596809,14.2974554 15.1787234,14.1481533 15.4514468,14.165267 C15.7068936,14.1758893 15.9296383,14.3358136 16.0098511,14.5683236 L19.2424255,23.8392158 L21.0435106,20.3922851 C21.1484043,20.1922321 21.3618936,20.065945 21.5957447,20.065945 L25.2978723,20.065945 L25.2978723,21.2461986 L21.9770638,21.2461986 L19.6798936,25.640873 C19.575,25.8421062 19.3602766,25.9672131 19.1276596,25.9672131" id="Fill-7"></path>
            </g>
        </g>
    </g>
</svg>