<?xml version="1.0" encoding="UTF-8"?>
<svg width="34px" height="35px" viewBox="0 0 34 35" version="1.1" xmlns="http://www.w3.org/2000/svg" xmlns:xlink="http://www.w3.org/1999/xlink">
    <!-- Generator: Sketch 51.2 (57519) - http://www.bohemiancoding.com/sketch -->
    <title>Group 10 Copy</title>
    <desc>Created with Sketch.</desc>
    <defs></defs>
    <g id="Page-1" stroke="none" stroke-width="1" fill="none" fill-rule="evenodd">
        <g id="1-tablet" transform="translate(-22.000000, -1103.000000)" fill="#525353">
            <g id="Group-10-Copy" transform="translate(22.000000, 1103.000000)">
                <path d="M5.30428333,33.5272459 C5.65731667,33.6047049 6.01715,33.6437213 6.38095,33.6437213 C7.72961667,33.6437213 9.00745,33.102082 9.97871667,32.1186393 C11.4458167,30.6337213 11.8560833,28.3885574 11.02365,26.3975738 C10.93355,26.1824098 10.9817167,25.9339672 11.1449167,25.7687213 L24.88205,11.8588033 C25.04525,11.6929836 25.2906167,11.6442131 25.5036833,11.7360164 C26.1428833,12.0102787 26.8211833,12.1491311 27.5181833,12.1491311 C28.8912167,12.1491311 30.18265,11.6080656 31.1539167,10.624623 C32.4107833,9.35085246 32.9071833,7.62322951 32.5445167,5.94380328 L30.46995,8.41044262 C30.3622833,8.53781967 30.20475,8.61183607 30.0387167,8.61183607 L26.63815,8.61183607 C26.32535,8.61183607 26.0714833,8.35536066 26.0714833,8.03806557 L26.0714833,4.38027869 C26.0714833,4.21560656 26.1411833,4.05896721 26.2635833,3.94995082 L28.6209167,1.84822951 C28.2576833,1.76732787 27.8865167,1.72659016 27.5091167,1.72659016 C26.1343833,1.72659016 24.8423833,2.26880328 23.8711167,3.25109836 C22.3819167,4.75896721 21.9501167,7.00470492 22.7717833,8.97216393 C22.8618833,9.18732787 22.8137167,9.43634426 22.6505167,9.60159016 L8.91565,23.5109344 C8.75131667,23.6761803 8.50538333,23.7249508 8.29345,23.6337213 C7.65481667,23.359459 6.97765,23.2206066 6.28065,23.2206066 C4.90648333,23.2206066 3.61505,23.7622459 2.64435,24.7456885 C1.38125,26.0251967 0.879183333,27.8342951 1.25715,29.554459 L3.33285,27.167 C3.44051667,27.0430656 3.59578333,26.9724918 3.75841667,26.9724918 L7.37148333,26.9724918 C7.68428333,26.9724918 7.93815,27.2289672 7.93815,27.5462623 L7.93815,30.9900328 C7.93815,31.1581475 7.86561667,31.3176557 7.73868333,31.4266721 L5.30428333,33.5272459 Z M6.38095,34.7912623 C5.54115,34.7912623 4.72005,34.6214262 3.94031667,34.2880656 C3.75955,34.2100328 3.63091667,34.0430656 3.60145,33.8468361 C3.57141667,33.6500328 3.64395,33.452082 3.79355,33.3229836 L6.80481667,30.7249508 L6.80481667,28.1200328 L4.01455,28.1200328 L1.44925,31.0697869 C1.32005,31.2172459 1.12511667,31.2883934 0.933016667,31.2568361 C0.740916667,31.2247049 0.577716667,31.0956066 0.501783333,30.9137213 C-0.50065,28.5147869 0.0252166667,25.774459 1.84251667,23.934377 C3.02741667,22.7340492 4.60331667,22.0730656 6.28065,22.0730656 C7.00031667,22.0730656 7.70298333,22.1947049 8.37505,22.4351148 L21.5885833,9.05478689 C20.7822167,6.74593443 21.34435,4.18691803 23.06985,2.43978689 C24.2553167,1.24060656 25.8317833,0.57904918 27.5091167,0.57904918 C28.35855,0.57904918 29.1853167,0.748885246 29.96505,1.08281967 C30.1446833,1.15970492 30.27275,1.32437705 30.3039167,1.51945902 C30.3345167,1.71454098 30.2648167,1.91134426 30.1186167,2.04216393 L27.2048167,4.63962295 L27.2048167,7.46429508 L29.7769167,7.46429508 L32.3410833,4.41527869 C32.4685833,4.26380328 32.6623833,4.1874918 32.85845,4.22019672 C33.0528167,4.25060656 33.2177167,4.38027869 33.2947833,4.56388525 C34.29325,6.95421311 33.77985,9.58667213 31.9551833,11.4359344 C30.7697167,12.6362623 29.1938167,13.2966721 27.5181833,13.2966721 C26.79795,13.2966721 26.0947167,13.1750328 25.42265,12.934623 L12.2074167,26.3155246 C13.0268167,28.644459 12.48565,31.2040492 10.7799833,32.9299508 C9.59451667,34.1302787 8.03221667,34.7912623 6.38095,34.7912623 Z" id="Fill-1"></path>
                <path d="M13.46757,18.1043525 L8.37607,12.9616475 C6.08503667,13.7861557 3.55770333,13.2273033 1.84240333,11.4893525 C0.0347366667,9.65845082 -0.49113,6.93992623 0.50167,4.56336885 C0.57817,4.38033607 0.74307,4.25009016 0.937436667,4.2202541 C1.13180333,4.18869672 1.32787,4.26386066 1.45480333,4.41533607 L4.02010333,7.46435246 L6.80470333,7.46435246 L6.80470333,4.64541803 L3.79400333,2.04795902 C3.64440333,1.91943443 3.57130333,1.72033607 3.60133667,1.52410656 C3.63137,1.32730328 3.75943667,1.16033607 3.94077,1.08287705 C6.30093667,0.0701721311 8.90080333,0.591155738 10.7266033,2.43984426 C12.4532367,4.18697541 13.0148033,6.74541803 12.2073033,9.05484426 L17.2982367,14.2090246 L16.49697,15.0203361 L11.1448033,9.60164754 C10.9816033,9.43640164 10.9334367,9.18738525 11.0235367,8.97222131 C11.8463367,7.00418852 11.4151033,4.75902459 9.92533667,3.25115574 C8.66733667,1.97853279 6.96053667,1.47590984 5.30303667,1.84197541 L7.73913667,3.94369672 C7.86550333,4.05271311 7.93803667,4.21222131 7.93803667,4.38033607 L7.93803667,8.03812295 C7.93803667,8.35541803 7.68417,8.61189344 7.37137,8.61189344 L3.75830333,8.61189344 C3.59227,8.61189344 3.43473667,8.53787705 3.32707,8.40992623 L1.25363667,5.94558197 C0.894936667,7.63705738 1.39700333,9.41459836 2.64367,10.678041 C4.12097,12.1744344 6.33833667,12.6007459 8.29390333,11.763041 C8.50527,11.6712377 8.75177,11.7211557 8.91497,11.8852541 L14.2677033,17.2918934 L13.46757,18.1043525 Z" id="Fill-4"></path>
                <path d="M27.5019767,34.7958525 C25.8716767,34.7958525 24.2753767,34.1509344 23.07121,32.9310984 C21.3445767,31.1833934 20.78301,28.6249508 21.5899433,26.3172459 L16.4967433,21.1579016 L17.29801,20.3465902 L22.6524433,25.7704426 C22.8156433,25.9356885 22.86381,26.1847049 22.77371,26.3998689 C21.9514767,28.3661803 22.38271,30.6113443 23.8724767,32.1197869 C25.13501,33.3981475 26.9228433,33.9047869 28.6222767,33.5238033 L26.26381,31.422082 C26.14141,31.3130656 26.07171,31.1558525 26.07171,30.9911803 L26.07171,27.5462623 C26.07171,27.2289672 26.32501,26.9724918 26.6383767,26.9724918 L30.0389433,26.9724918 C30.2015767,26.9724918 30.3562767,27.0430656 30.4639433,27.167 L32.5407767,29.554459 C32.9187433,27.8342951 32.4166767,26.024623 31.1535767,24.7456885 C29.66381,23.2372459 27.44531,22.8006066 25.50391,23.6337213 C25.29141,23.7260984 25.0454767,23.6761803 24.8822767,23.5109344 L19.53011,18.0905246 L20.3313767,17.2792131 L25.4228767,22.4351148 C27.70031,21.6163443 30.2287767,22.1855246 31.9548433,23.934377 C33.7721433,25.774459 34.2985767,28.5142131 33.2961433,30.9137213 C33.22021,31.0956066 33.05701,31.2247049 32.86491,31.2568361 C32.6739433,31.2883934 32.47731,31.2172459 32.3486767,31.0697869 L29.78281,28.1200328 L27.2050433,28.1200328 L27.2050433,30.7318361 L30.11941,33.3281475 C30.26561,33.4589672 30.33531,33.6563443 30.30471,33.8514262 C30.2735433,34.0459344 30.1454767,34.2106066 29.9658433,34.2880656 C29.1668433,34.629459 28.3298767,34.7958525 27.5019767,34.7958525" id="Fill-7"></path>
            </g>
        </g>
    </g>
</svg>