<?xml version="1.0" encoding="UTF-8"?>
<svg width="42px" height="31px" viewBox="0 0 42 31" version="1.1" xmlns="http://www.w3.org/2000/svg" xmlns:xlink="http://www.w3.org/1999/xlink">
    <!-- Generator: Sketch 51.2 (57519) - http://www.bohemiancoding.com/sketch -->
    <title>Group 8 Copy 2</title>
    <desc>Created with Sketch.</desc>
    <defs></defs>
    <g id="Page-1" stroke="none" stroke-width="1" fill="none" fill-rule="evenodd">
        <g id="1-tablet" transform="translate(-18.000000, -542.000000)" fill="#525353">
            <g id="Group-8-Copy-2" transform="translate(18.000000, 542.000000)">
                <path d="M1.4,29.5909091 L9.8,29.5909091 L9.8,23.9545455 L1.4,23.9545455 L1.4,29.5909091 Z M10.5,31 L0.7,31 C0.3129,31 0,30.6843636 0,30.2954545 L0,23.25 C0,22.8610909 0.3129,22.5454545 0.7,22.5454545 L10.5,22.5454545 C10.8871,22.5454545 11.2,22.8610909 11.2,23.25 L11.2,30.2954545 C11.2,30.6843636 10.8871,31 10.5,31 Z" id="Fill-1"></path>
                <path d="M15.4,29.5909091 L26.6,29.5909091 L26.6,23.9545455 L15.4,23.9545455 L15.4,29.5909091 Z M27.3,31 L14.7,31 C14.3129,31 14,30.6843636 14,30.2954545 L14,23.25 C14,22.8610909 14.3129,22.5454545 14.7,22.5454545 L27.3,22.5454545 C27.6871,22.5454545 28,22.8610909 28,23.25 L28,30.2954545 C28,30.6843636 27.6871,31 27.3,31 Z" id="Fill-3"></path>
                <path d="M14,7.04545455 L28,7.04545455 L28,1.40909091 L14,1.40909091 L14,7.04545455 Z M28.7,8.45454545 L13.3,8.45454545 C12.9129,8.45454545 12.6,8.13890909 12.6,7.75 L12.6,0.704545455 C12.6,0.315636364 12.9129,0 13.3,0 L28.7,0 C29.0871,0 29.4,0.315636364 29.4,0.704545455 L29.4,7.75 C29.4,8.13890909 29.0871,8.45454545 28.7,8.45454545 Z" id="Fill-4"></path>
                <path d="M5.6,18.3181818 L18.2,18.3181818 L18.2,12.6818182 L5.6,12.6818182 L5.6,18.3181818 Z M18.9,19.7272727 L4.9,19.7272727 C4.5129,19.7272727 4.2,19.4116364 4.2,19.0227273 L4.2,11.9772727 C4.2,11.5883636 4.5129,11.2727273 4.9,11.2727273 L18.9,11.2727273 C19.2871,11.2727273 19.6,11.5883636 19.6,11.9772727 L19.6,19.0227273 C19.6,19.4116364 19.2871,19.7272727 18.9,19.7272727 Z" id="Fill-5"></path>
                <path d="M32.2,29.5909091 L40.6,29.5909091 L40.6,23.9545455 L32.2,23.9545455 L32.2,29.5909091 Z M41.3,31 L31.5,31 C31.1129,31 30.8,30.6843636 30.8,30.2954545 L30.8,23.25 C30.8,22.8610909 31.1129,22.5454545 31.5,22.5454545 L41.3,22.5454545 C41.6871,22.5454545 42,22.8610909 42,23.25 L42,30.2954545 C42,30.6843636 41.6871,31 41.3,31 Z" id="Fill-6"></path>
                <path d="M23.8,18.3181818 L36.4,18.3181818 L36.4,12.6818182 L23.8,12.6818182 L23.8,18.3181818 Z M37.1,19.7272727 L23.1,19.7272727 C22.7129,19.7272727 22.4,19.4116364 22.4,19.0227273 L22.4,11.9772727 C22.4,11.5883636 22.7129,11.2727273 23.1,11.2727273 L37.1,11.2727273 C37.4871,11.2727273 37.8,11.5883636 37.8,11.9772727 L37.8,19.0227273 C37.8,19.4116364 37.4871,19.7272727 37.1,19.7272727 Z" id="Fill-7"></path>
            </g>
        </g>
    </g>
</svg>