<?xml version="1.0" encoding="UTF-8"?>
<svg width="42px" height="42px" viewBox="0 0 42 42" version="1.1" xmlns="http://www.w3.org/2000/svg" xmlns:xlink="http://www.w3.org/1999/xlink">
    <!-- Generator: Sketch 51.2 (57519) - http://www.bohemiancoding.com/sketch -->
    <title>Group 11 Copy</title>
    <desc>Created with Sketch.</desc>
    <defs></defs>
    <g id="Page-1" stroke="none" stroke-width="1" fill="none" fill-rule="evenodd">
        <g id="1-tablet" transform="translate(-17.000000, -1261.000000)" fill="#525353">
            <g id="Group-11-Copy" transform="translate(17.000000, 1261.000000)">
                <path d="M14.69531,22.58319 C12.16131,22.58319 10.09981,24.64469 10.09981,27.17799 C10.09981,29.71269 12.16131,31.77419 14.69531,31.77419 C17.22931,31.77419 19.29081,29.71269 19.29081,27.17799 C19.29081,24.64469 17.22931,22.58319 14.69531,22.58319 M14.69531,33.17419 C11.38921,33.17419 8.69981,30.48409 8.69981,27.17799 C8.69981,23.87259 11.38921,21.18319 14.69531,21.18319 C18.00141,21.18319 20.69081,23.87259 20.69081,27.17799 C20.69081,30.48409 18.00141,33.17419 14.69531,33.17419" id="Fill-1"></path>
                <path d="M33.23026,6.69648 C32.15646,6.69648 31.28216,7.57008 31.28216,8.64318 C31.28216,9.71698 32.15646,10.59128 33.23026,10.59128 C34.30406,10.59128 35.17836,9.71698 35.17836,8.64318 C35.17836,7.57008 34.30406,6.69648 33.23026,6.69648 M33.23026,11.99128 C31.38436,11.99128 29.88216,10.48978 29.88216,8.64318 C29.88216,6.79798 31.38436,5.29648 33.23026,5.29648 C35.07616,5.29648 36.57836,6.79798 36.57836,8.64318 C36.57836,10.48978 35.07616,11.99128 33.23026,11.99128" id="Fill-3"></path>
                <g id="Group-7" transform="translate(0.000000, 11.900000)">
                    <path d="M11.9903,28.7 L17.6512,28.7 L17.6512,26.194 C17.6512,25.8818 17.8584,25.6074 18.1594,25.5213 C19.7561,25.0663 20.7998,24.3215 21.9667,23.268 C22.1942,23.065 22.5267,23.03 22.7892,23.1833 L24.934,24.437 L27.7494,19.5384 L25.5724,18.284 C25.3099,18.1328 25.1748,17.8297 25.2371,17.5329 C25.3918,16.8042 25.4695,16.0454 25.4695,15.2782 C25.4695,14.5348 25.3883,13.7767 25.2287,13.0242 C25.1657,12.7281 25.3008,12.425 25.5633,12.2724 L27.7326,11.0194 L24.906,6.1222 L22.7906,7.3724 C22.5274,7.5292 22.1914,7.4963 21.9646,7.2891 C20.8012,6.2363 19.7596,5.4929 18.1594,5.0379 C17.8591,4.9525 17.6512,4.6781 17.6512,4.3645 L17.6512,2.0699 L11.9903,2.0699 L11.9903,4.3645 C11.9903,4.6781 11.7824,4.9525 11.4814,5.0379 C10.0093,5.4565 8.8333,6.1299 7.5495,7.2898 C7.3241,7.4928 6.9944,7.5292 6.7326,7.3787 L4.5178,6.1124 L1.6716,11.0208 L3.8339,12.2731 C4.0964,12.425 4.2308,12.7281 4.1678,13.0242 C4.0075,13.7816 3.9256,14.5397 3.9256,15.2782 C3.9256,16.0349 4.0054,16.7937 4.1622,17.5322 C4.2259,17.829 4.0908,18.1321 3.8276,18.284 L1.6562,19.5377 L4.4898,24.4468 L6.7361,23.1777 C6.9986,23.0286 7.3262,23.0671 7.5495,23.268 C8.8319,24.4272 10.0079,25.1006 11.4821,25.5213 C11.7831,25.6074 11.9903,25.8818 11.9903,26.194 L11.9903,28.7 Z M18.3512,30.1 L11.2903,30.1 C10.9039,30.1 10.5903,29.7871 10.5903,29.4 L10.5903,26.7092 C9.2848,26.271 8.1445,25.6151 6.993,24.6407 L4.5738,26.0071 C4.2392,26.194 3.8157,26.0799 3.6232,25.7474 L0.0938,19.6315 C-0.0994,19.2962 0.0154,18.8685 0.35,18.6753 L2.6971,17.3201 C2.583,16.6467 2.5256,15.9621 2.5256,15.2782 C2.5256,14.6062 2.5851,13.9216 2.702,13.2356 L0.364,11.8818 C0.2037,11.7887 0.0861,11.6354 0.0385,11.4562 C-0.0098,11.2763 0.0161,11.0852 0.1092,10.9242 L3.6554,4.8083 C3.8486,4.4758 4.2728,4.3603 4.6081,4.5521 L6.9944,5.915 C8.1473,4.9413 9.2876,4.2861 10.5903,3.8486 L10.5903,1.3699 C10.5903,0.9828 10.9039,0.6699 11.2903,0.6699 L18.3512,0.6699 C18.7376,0.6699 19.0512,0.9828 19.0512,1.3699 L19.0512,3.85 C20.4533,4.3267 21.4921,5.0253 22.5162,5.908 L24.8024,4.5577 C24.9627,4.4625 25.1545,4.4338 25.3358,4.4828 C25.5171,4.5304 25.6711,4.648 25.7649,4.8097 L29.295,10.9256 C29.4882,11.2609 29.3734,11.6886 29.0388,11.8825 L26.6945,13.2363 C26.8107,13.9181 26.8695,14.6027 26.8695,15.2782 C26.8695,15.9684 26.8135,16.6523 26.7022,17.3194 L29.0542,18.6753 C29.3888,18.8678 29.5043,19.2948 29.3118,19.6301 L25.7971,25.746 C25.704,25.9084 25.55,26.026 25.3701,26.075 C25.1888,26.1226 24.9984,26.096 24.8367,26.0022 L22.5197,24.6477 C21.4921,25.5318 20.4519,26.2311 19.0512,26.7085 L19.0512,29.4 C19.0512,29.7871 18.7376,30.1 18.3512,30.1 Z" id="Fill-5"></path>
                </g>
                <g id="Group-10" transform="translate(24.500000, 0.000000)">
                    <path d="M7.7903,15.88741 L9.9204,15.88741 L9.9204,14.56301 C9.9204,14.25781 10.1185,13.98761 10.4097,13.89591 C11.1902,13.65021 11.9315,13.20851 12.5524,12.62051 C12.7785,12.40701 13.1194,12.36851 13.3889,12.52601 L14.5019,13.18261 L15.5533,11.34511 L14.3955,10.68011 C14.1267,10.52541 13.9916,10.21321 14.063,9.91151 C14.1596,9.50481 14.2079,9.07781 14.2079,8.64311 C14.2079,8.23151 14.1568,7.80591 14.0546,7.37611 C13.9832,7.07511 14.1183,6.76291 14.3857,6.60821 L15.5351,5.94531 L14.476,4.10921 L13.391,4.75881 C13.1215,4.91911 12.7778,4.88131 12.5503,4.66641 C11.9336,4.08261 11.193,3.64091 10.4083,3.39101 C10.1178,3.29861 9.9204,3.02911 9.9204,2.72391 L9.9204,1.40021 L7.7903,1.40021 L7.7903,2.72601 C7.7903,3.03261 7.5922,3.30211 7.301,3.39311 C6.4211,3.67171 5.5958,4.13581 5.0351,4.66641 C4.8125,4.87781 4.4765,4.91911 4.2084,4.76721 L3.0205,4.09311 L1.9411,5.94741 L3.0828,6.60891 C3.3502,6.76431 3.4846,7.07581 3.4132,7.37751 C3.3075,7.82131 3.2557,8.23501 3.2557,8.64311 C3.2557,9.06101 3.3068,9.48731 3.4069,9.91081 C3.479,10.21251 3.3439,10.52471 3.0758,10.67941 L1.9243,11.34301 L2.9939,13.19731 L4.2112,12.51831 C4.4779,12.36851 4.8118,12.41051 5.0337,12.62121 C5.5958,13.15391 6.4218,13.61801 7.301,13.89591 C7.5922,13.98761 7.7903,14.25781 7.7903,14.56301 L7.7903,15.88741 Z M10.6204,17.28741 L7.0903,17.28741 C6.7039,17.28741 6.3903,16.97521 6.3903,16.58741 L6.3903,15.05791 C5.6812,14.78211 5.0134,14.40761 4.4674,13.97781 L3.0737,14.75621 C2.7391,14.94101 2.3177,14.82551 2.1266,14.49511 L0.3612,11.43681 C0.2688,11.27581 0.2436,11.08471 0.2919,10.90551 C0.3395,10.72561 0.4571,10.57301 0.6181,10.47991 L1.9425,9.71691 C1.8844,9.35851 1.8557,8.99871 1.8557,8.64311 C1.8557,8.29451 1.8858,7.93471 1.9467,7.56861 L0.6321,6.80701 C0.4711,6.71461 0.3535,6.56061 0.3059,6.38141 C0.2583,6.20151 0.2842,6.01041 0.378,5.84941 L2.1588,2.79111 C2.3506,2.45931 2.7734,2.34381 3.1087,2.53421 L4.4716,3.30701 C5.0169,2.88001 5.6826,2.50761 6.3903,2.23111 L6.3903,0.70021 C6.3903,0.31311 6.7039,0.00021 7.0903,0.00021 L10.6204,0.00021 C11.0075,0.00021 11.3204,0.31311 11.3204,0.70021 L11.3204,2.23321 C11.9602,2.49291 12.5657,2.85341 13.1096,3.29651 L14.3675,2.54331 C14.5278,2.44461 14.7203,2.41801 14.9023,2.46561 C15.0843,2.51321 15.239,2.63081 15.3328,2.79321 L17.0982,5.85151 C17.1906,6.01251 17.2158,6.20361 17.1675,6.38281 C17.1199,6.56271 17.0023,6.71461 16.842,6.80771 L15.5197,7.57001 C15.5785,7.93261 15.6079,8.29101 15.6079,8.64311 C15.6079,9.00571 15.5806,9.36481 15.5267,9.71551 L16.8567,10.47921 C17.1913,10.67241 17.3068,11.09871 17.115,11.43401 L15.3657,14.49231 C15.2726,14.65471 15.1186,14.77371 14.9373,14.82201 C14.7567,14.86961 14.5635,14.84371 14.4025,14.74781 L13.1138,13.98901 C12.5671,14.43491 11.9595,14.79541 11.3204,15.05511 L11.3204,16.58741 C11.3204,16.97521 11.0075,17.28741 10.6204,17.28741 Z" id="Fill-8"></path>
                </g>
            </g>
        </g>
    </g>
</svg>