<?xml version="1.0" encoding="UTF-8"?>
<svg width="28px" height="24px" viewBox="0 0 28 24" version="1.1" xmlns="http://www.w3.org/2000/svg" xmlns:xlink="http://www.w3.org/1999/xlink">
    <!-- Generator: Sketch 51.2 (57519) - http://www.bohemiancoding.com/sketch -->
    <title>Fill 1 Copy 18</title>
    <desc>Created with Sketch.</desc>
    <defs></defs>
    <g id="Page-1" stroke="none" stroke-width="1" fill="none" fill-rule="evenodd">
        <g id="1-tablet" transform="translate(-690.000000, -487.000000)" fill="#FFFFFF" stroke="#FFA602">
            <path d="M716.873034,491.920399 L713.04845,488.126069 C712.879017,487.957977 712.604718,487.957977 712.435719,488.126069 L699.082608,501.373122 L695.564389,497.882734 C695.39539,497.715072 695.121091,497.715072 694.951659,497.882734 L691.127074,501.677064 C690.957642,501.845156 690.957642,502.117286 691.127074,502.284948 L698.776243,509.874038 C698.861176,509.957869 698.971675,510 699.082608,510 C699.193541,510 699.304474,509.957869 699.388973,509.874038 L716.873034,492.528283 C716.954067,492.447891 717,492.338696 717,492.224341 C717,492.109987 716.954067,492.000791 716.873034,491.920399" id="Fill-1-Copy-18"></path>
        </g>
    </g>
</svg>