<?xml version="1.0" encoding="UTF-8"?>
<svg width="26px" height="22px" viewBox="0 0 26 22" version="1.1" xmlns="http://www.w3.org/2000/svg" xmlns:xlink="http://www.w3.org/1999/xlink">
    <!-- Generator: Sketch 51.2 (57519) - http://www.bohemiancoding.com/sketch -->
    <title>Fill 1 Copy 23</title>
    <desc>Created with Sketch.</desc>
    <defs></defs>
    <g id="Page-1" stroke="none" stroke-width="1" fill="none" fill-rule="evenodd">
        <g id="1-tablet" transform="translate(-691.000000, -543.000000)" fill="#FFA602">
            <path d="M716.873034,546.920399 L713.04845,543.126069 C712.879017,542.957977 712.604718,542.957977 712.435719,543.126069 L699.082608,556.373122 L695.564389,552.882734 C695.39539,552.715072 695.121091,552.715072 694.951659,552.882734 L691.127074,556.677064 C690.957642,556.845156 690.957642,557.117286 691.127074,557.284948 L698.776243,564.874038 C698.861176,564.957869 698.971675,565 699.082608,565 C699.193541,565 699.304474,564.957869 699.388973,564.874038 L716.873034,547.528283 C716.954067,547.447891 717,547.338696 717,547.224341 C717,547.109987 716.954067,547.000791 716.873034,546.920399" id="Fill-1-Copy-23"></path>
        </g>
    </g>
</svg>