<?xml version="1.0" encoding="UTF-8"?>
<svg width="17px" height="17px" viewBox="0 0 17 17" version="1.1" xmlns="http://www.w3.org/2000/svg" xmlns:xlink="http://www.w3.org/1999/xlink">
    <!-- Generator: Sketch 49.1 (51147) - http://www.bohemiancoding.com/sketch -->
    <title>Page 1</title>
    <desc>Created with Sketch.</desc>
    <defs></defs>
    <g id="desktop" stroke="none" stroke-width="1" fill="none" fill-rule="evenodd">
        <g id="results-item-detail" transform="translate(-183.000000, -2925.000000)" fill="#5C5C68">
            <g id="Group-31" transform="translate(171.000000, 2913.000000)">
                <g id="Page-1" transform="translate(12.000000, 12.000000)">
                    <path d="M14.5714286,17 L2.42857143,17 C1.04398214,17 0,15.9743333 0,14.6140351 L0,13.1752982 C0,13.0103684 0.136,12.8770526 0.303571429,12.8770526 C0.471142857,12.8770526 0.607142857,13.0103684 0.607142857,13.1752982 L0.607142857,14.6140351 C0.607142857,15.6343333 1.39035714,16.4035088 2.42857143,16.4035088 L14.5714286,16.4035088 C15.6096429,16.4035088 16.3928571,15.6343333 16.3928571,14.6140351 L16.3928571,13.1752982 C16.3928571,13.0103684 16.5288571,12.8770526 16.6964286,12.8770526 C16.864,12.8770526 17,13.0103684 17,13.1752982 L17,14.6140351 C17,15.9743333 15.9560179,17 14.5714286,17" id="Fill-1"></path>
                    <path d="M8.80357143,13.4210526 C8.636,13.4210526 8.5,13.2877368 8.5,13.122807 L8.5,0.298245614 C8.5,0.133315789 8.636,0 8.80357143,0 C8.97114286,0 9.10714286,0.133315789 9.10714286,0.298245614 L9.10714286,13.122807 C9.10714286,13.2877368 8.97114286,13.4210526 8.80357143,13.4210526" id="Fill-3"></path>
                    <path d="M8.80357143,13.4210526 C8.72008929,13.4210526 8.64025,13.3873509 8.58257143,13.3277018 L3.42185714,7.9592807 C3.30710714,7.83938596 3.31257143,7.65059649 3.43430357,7.5375614 C3.55633929,7.42482456 3.74819643,7.42989474 3.86355357,7.54949123 L8.80357143,12.6885614 L13.7432857,7.54949123 C13.8589464,7.42989474 14.0508036,7.42482456 14.1728393,7.5375614 C14.2945714,7.65059649 14.3000357,7.83938596 14.1849821,7.9592807 L9.02426786,13.3277018 C8.96689286,13.3873509 8.88705357,13.4210526 8.80357143,13.4210526" id="Fill-5"></path>
                </g>
            </g>
        </g>
    </g>
</svg>