<?xml version="1.0" encoding="UTF-8"?>
<svg width="64px" height="65px" viewBox="0 0 64 65" version="1.1" xmlns="http://www.w3.org/2000/svg" xmlns:xlink="http://www.w3.org/1999/xlink">
    <!-- Generator: Sketch 49.3 (51167) - http://www.bohemiancoding.com/sketch -->
    <title>Page 1</title>
    <desc>Created with Sketch.</desc>
    <defs>
        <polygon id="path-1" points="0 0 50.769225 0 50.769225 28 0 28"></polygon>
    </defs>
    <g id="desktop" stroke="none" stroke-width="1" fill="none" fill-rule="evenodd">
        <g id="landing-page-other-partners" transform="translate(-602.000000, -847.000000)">
            <g id="Group-18" transform="translate(217.000000, 808.000000)">
                <g id="Page-1" transform="translate(385.000000, 39.000000)">
                    <path d="M12.5,56.2 C10.6806,56.2 9.2,57.6806 9.2,59.5 C9.2,61.3194 10.6806,62.8 12.5,62.8 C14.3194,62.8 15.8,61.3194 15.8,59.5 C15.8,57.6806 14.3194,56.2 12.5,56.2 M12.5,65 C9.4673,65 7,62.5327 7,59.5 C7,56.4673 9.4673,54 12.5,54 C15.5327,54 18,56.4673 18,59.5 C18,62.5327 15.5327,65 12.5,65" id="Fill-1" fill="#FF9502"></path>
                    <path d="M41.5,56.2 C39.6806,56.2 38.2,57.6806 38.2,59.5 C38.2,61.3194 39.6806,62.8 41.5,62.8 C43.3194,62.8 44.8,61.3194 44.8,59.5 C44.8,57.6806 43.3194,56.2 41.5,56.2 M41.5,65 C38.4673,65 36,62.5327 36,59.5 C36,56.4673 38.4673,54 41.5,54 C44.5327,54 47,56.4673 47,59.5 C47,62.5327 44.5327,65 41.5,65" id="Fill-3" fill="#FF9502"></path>
                    <path d="M42.7755102,56 L13.0612245,56 C12.4754286,56 12,55.5225227 12,54.9318182 C12,54.3411136 12.4754286,53.8636364 13.0612245,53.8636364 L41.9403265,53.8636364 L52.540898,9.81715909 C52.6565714,9.33754545 53.0821224,9 53.5724082,9 L62.9387755,9 C63.5245714,9 64,9.47747727 64,10.0681818 C64,10.6588864 63.5245714,11.1363636 62.9387755,11.1363636 L54.4065306,11.1363636 L43.8070204,55.1828409 C43.6913469,55.6624545 43.2647347,56 42.7755102,56" id="Fill-5" fill="#FF9502"></path>
                    <g id="Group-9" transform="translate(0.000000, 23.000000)">
                        <mask id="mask-2" fill="white">
                            <use xlink:href="#path-1"></use>
                        </mask>
                        <g id="Clip-8"></g>
                        <path d="M43.5622875,28 L9.1001,28 C8.63685,28 8.226725,27.6952308 8.0875375,27.2472308 L0.0486625,1.40107692 C-0.052275,1.07369231 0.0051,0.717230769 0.20485,0.439384615 C0.4056625,0.162615385 0.7244125,0 1.0622875,0 L49.706725,0 C50.293225,0 50.769225,0.481384615 50.769225,1.07692308 C50.769225,1.67246154 50.293225,2.15384615 49.706725,2.15384615 L2.5115375,2.15384615 L9.879975,25.8461538 L43.5622875,25.8461538 C44.1487875,25.8461538 44.6247875,26.3275385 44.6247875,26.9230769 C44.6247875,27.5186154 44.1487875,28 43.5622875,28" id="Fill-7" fill="#FF9502" mask="url(#mask-2)"></path>
                    </g>
                    <path d="M27,21 C26.448,21 26,20.53065 26,19.95 L26,1.05 C26,0.46935 26.448,0 27,0 C27.552,0 28,0.46935 28,1.05 L28,19.95 C28,20.53065 27.552,21 27,21" id="Fill-10" fill="#FF9502"></path>
                    <path d="M26.5,22 C26.1929304,22 25.9028612,21.8636141 25.7009816,21.6238388 L18.2633102,12.8247452 C17.8765513,12.3682922 17.9211773,11.6731638 18.362125,11.2728051 C18.8051977,10.8713464 19.4756506,10.9186416 19.861347,11.3772943 L26.5,19.2293854 L33.138653,11.3772943 C33.5243494,10.9197415 34.1958649,10.8735462 34.637875,11.2728051 C35.0788227,11.6731638 35.1234487,12.3682922 34.7366898,12.8247452 L27.2990184,21.6238388 C27.0971388,21.8636141 26.8070696,22 26.5,22" id="Fill-12" fill="#FF9502"></path>
                </g>
            </g>
        </g>
    </g>
</svg>