<?xml version="1.0" encoding="UTF-8"?>
<svg width="16px" height="14px" viewBox="0 0 16 14" version="1.1" xmlns="http://www.w3.org/2000/svg" xmlns:xlink="http://www.w3.org/1999/xlink">
    <!-- Generator: Sketch 49.1 (51147) - http://www.bohemiancoding.com/sketch -->
    <title>Page 1</title>
    <desc>Created with Sketch.</desc>
    <defs>
        <polygon id="path-1" points="0 0.0267784146 16 0.0267784146 16 5.49014118 0 5.49014118"></polygon>
    </defs>
    <g id="desktop" stroke="none" stroke-width="1" fill="none" fill-rule="evenodd">
        <g id="results-item-detail" transform="translate(-823.000000, -770.000000)">
            <g id="Group-24" transform="translate(168.000000, 764.000000)">
                <g id="Page-1" transform="translate(655.000000, 6.000000)">
                    <g id="Group-3" transform="translate(0.000000, 0.247773)">
                        <mask id="mask-2" fill="white">
                            <use xlink:href="#path-1"></use>
                        </mask>
                        <g id="Clip-2"></g>
                        <path d="M7.99946667,2.86692549 C8.97573333,2.86692549 9.944,2.91743529 10.9597333,3.02092549 C11.096,3.03492549 11.2,3.15296471 11.2,3.29406275 L11.2,3.84308235 C11.2,4.41763137 11.7581333,4.94112157 12.3709333,4.94112157 L14.3882667,4.94112157 C14.9826667,4.94112157 15.4664,4.44865098 15.4666667,3.84308235 L15.4666667,2.94241569 C15.4669333,2.12327843 14.8357333,1.37304314 13.9986667,1.19708235 C10.0474667,0.368062745 5.9488,0.368611765 2.00106667,1.19708235 C1.16426667,1.37304314 0.533066666,2.12327843 0.533333333,2.94241569 L0.533333333,3.84308235 C0.533333333,4.44865098 1.01173333,4.94112157 1.6,4.94112157 L3.7216,4.94112157 C4.316,4.94112157 4.79973333,4.44865098 4.8,3.84308235 L4.8,3.29406275 C4.8,3.15296471 4.904,3.03492549 5.04026667,3.02092549 C6.0552,2.91743529 7.0232,2.86692549 7.99946667,2.86692549 M14.3882667,5.49014118 L12.3709333,5.49014118 C11.4629333,5.49014118 10.6666667,4.72041569 10.6666667,3.84308235 L10.6666667,3.54359216 C8.8448,3.37174902 7.15413333,3.37174902 5.33333333,3.54359216 L5.33333333,3.84308235 C5.33306667,4.75143529 4.61013333,5.49014118 3.7216,5.49014118 L1.6,5.49014118 C0.717599999,5.49014118 -8.18363317e-10,4.75143529 -8.18363317e-10,3.84308235 L-8.18363317e-10,2.94241569 C-0.000266667485,1.8677098 0.814133333,0.886062745 1.8944,0.659043137 C5.91253333,-0.183701961 10.0837333,-0.18425098 14.1053333,0.659043137 C15.1858667,0.886062745 16.0002667,1.8677098 16,2.94241569 L16,3.84308235 C15.9997333,4.75143529 15.2768,5.49014118 14.3882667,5.49014118" id="Fill-1" fill="#5C5C68" mask="url(#mask-2)"></path>
                    </g>
                    <path d="M11.7333333,13.9732627 L4.26666667,13.9732627 C3.38426667,13.9732627 2.66666667,13.2345569 2.66666667,12.3262039 L2.66666667,6.83600784 L3.2,6.83600784 L3.2,12.3262039 C3.2,12.9317725 3.6784,13.4242431 4.26666667,13.4242431 L11.7333333,13.4242431 C12.4368,13.4242431 12.7026667,12.7302824 12.8,12.2957333 L12.8,6.83600784 L13.3333333,6.83600784 L13.3333333,12.3262039 C13.3333333,12.3459686 13.3312,12.3657333 13.3272,12.3852235 C13.1152,13.379498 12.5192,13.9732627 11.7333333,13.9732627" id="Fill-4" fill="#5C5C68"></path>
                    <polygon id="Fill-6" fill="#5C5C68" points="5.86666667 7.93404706 6.4 7.93404706 6.4 7.38502745 5.86666667 7.38502745"></polygon>
                    <polygon id="Fill-8" fill="#5C5C68" points="8 7.93404706 8.53333333 7.93404706 8.53333333 7.38502745 8 7.38502745"></polygon>
                    <polygon id="Fill-9" fill="#5C5C68" points="10.1333333 7.93404706 10.6666667 7.93404706 10.6666667 7.38502745 10.1333333 7.38502745"></polygon>
                    <polygon id="Fill-10" fill="#5C5C68" points="5.86666667 9.58110588 6.4 9.58110588 6.4 9.03208627 5.86666667 9.03208627"></polygon>
                    <polygon id="Fill-11" fill="#5C5C68" points="8 9.58110588 8.53333333 9.58110588 8.53333333 9.03208627 8 9.03208627"></polygon>
                    <polygon id="Fill-12" fill="#5C5C68" points="10.1333333 9.58110588 10.6666667 9.58110588 10.6666667 9.03208627 10.1333333 9.03208627"></polygon>
                    <polygon id="Fill-13" fill="#5C5C68" points="5.86666667 11.2281647 6.4 11.2281647 6.4 10.6791451 5.86666667 10.6791451"></polygon>
                    <polygon id="Fill-14" fill="#5C5C68" points="8 11.2281647 8.53333333 11.2281647 8.53333333 10.6791451 8 10.6791451"></polygon>
                    <polygon id="Fill-15" fill="#5C5C68" points="10.1333333 11.2281647 10.6666667 11.2281647 10.6666667 10.6791451 10.1333333 10.6791451"></polygon>
                </g>
            </g>
        </g>
    </g>
</svg>