<?xml version="1.0" encoding="UTF-8"?>
<svg width="56px" height="38px" viewBox="0 0 56 38" version="1.1" xmlns="http://www.w3.org/2000/svg" xmlns:xlink="http://www.w3.org/1999/xlink">
    <!-- Generator: Sketch 49.3 (51167) - http://www.bohemiancoding.com/sketch -->
    <title>Page 1</title>
    <desc>Created with Sketch.</desc>
    <defs></defs>
    <g id="desktop" stroke="none" stroke-width="1" fill="none" fill-rule="evenodd">
        <g id="quote-page" transform="translate(-606.000000, -672.000000)" fill="#231F20">
            <g id="Page-1" transform="translate(606.000000, 672.000000)">
                <path d="M6,2 C3.57,2 2,3.57 2,6 L2,32 C2,34.318 3.609,36 5.826,36 L50,36 C52.243,36 54,34.243 54,32 L54,6 C54,3.57 52.43,2 50,2 L6,2 Z M50,38 L5.826,38 C2.505,38 0,35.42 0,32 L0,6 C0,2.467 2.467,0 6,0 L50,0 C53.533,0 56,2.467 56,6 L56,32 C56,35.309 53.309,38 50,38 Z" id="Fill-1"></path>
                <path d="M29,23 C28.792,23 28.585,22.936 28.409,22.806 L1.732,3.235 L2.915,1.623 L28.977,20.742 L53.055,1.645 L54.298,3.212 L29.622,22.784 C29.44,22.928 29.22,23 29,23" id="Fill-3"></path>
            </g>
        </g>
    </g>
</svg>