<?xml version="1.0" encoding="UTF-8"?>
<svg width="63px" height="48px" viewBox="0 0 63 48" version="1.1" xmlns="http://www.w3.org/2000/svg" xmlns:xlink="http://www.w3.org/1999/xlink">
    <!-- Generator: Sketch 49.3 (51167) - http://www.bohemiancoding.com/sketch -->
    <title>Page 1</title>
    <desc>Created with Sketch.</desc>
    <defs>
        <polygon id="path-1" points="-1.45622138e-05 0 37.0002643 0 37.0002643 38 -1.45622138e-05 38"></polygon>
    </defs>
    <g id="desktop" stroke="none" stroke-width="1" fill="none" fill-rule="evenodd">
        <g id="quote-page" transform="translate(-296.000000, -668.000000)">
            <g id="Page-1" transform="translate(296.000000, 668.000000)">
                <path d="M61.95,48 L1.05,48 C0.4704,48 0,47.5333333 0,46.9583333 L0,24.0416667 C0,23.4666667 0.4704,23 1.05,23 L18.26055,23 C18.84015,23 19.31055,23.4666667 19.31055,24.0416667 C19.31055,24.6166667 18.84015,25.0833333 18.26055,25.0833333 L2.1,25.0833333 L2.1,45.9166667 L60.9,45.9166667 L60.9,25.0833333 L51.35865,25.0833333 C50.77905,25.0833333 50.30865,24.6166667 50.30865,24.0416667 C50.30865,23.4666667 50.77905,23 51.35865,23 L61.95,23 C62.5296,23 63,23.4666667 63,24.0416667 L63,46.9583333 C63,47.5333333 62.5296,48 61.95,48" id="Fill-1" fill="#231F20"></path>
                <g id="Group-5" transform="translate(22.000000, 0.000000)">
                    <mask id="mask-2" fill="white">
                        <use xlink:href="#path-1"></use>
                    </mask>
                    <g id="Clip-4"></g>
                    <path d="M6.20965714,24.8477778 L2.8268,34.9821667 L12.0736286,30.7852778 L34.4480571,8.44444444 L28.5428571,2.54916667 L6.20965714,24.8477778 Z M1.05714286,38 C0.801314286,38 0.5476,37.9071111 0.349914286,37.7287222 C0.037,37.4479444 -0.0782285714,37.0088333 0.0539142857,36.6108889 L4.28248571,23.9442222 C4.33534286,23.7890556 4.42202857,23.6476111 4.53831429,23.5315 L27.7954571,0.309277778 C28.2088,-0.103444444 28.8769143,-0.103444444 29.2902571,0.309277778 L36.6902571,7.69816667 C37.1036,8.11088889 37.1036,8.77905556 36.6902571,9.19072222 L13.4331143,32.4129444 C13.3443143,32.5016111 13.2375429,32.5755 13.1233714,32.6282778 L1.4948,37.9060556 C1.3542,37.9693889 1.20514286,38 1.05714286,38 Z" id="Fill-3" fill="#231F20" mask="url(#mask-2)"></path>
                </g>
                <polygon id="Fill-6" fill="#231F20" points="52.4875208 13 45 5.5124792 46.5124792 4 54 11.4875208"></polygon>
                <polygon id="Fill-8" fill="#231F20" points="34.4875208 32 27 24.5124792 28.5124792 23 36 30.4875208"></polygon>
            </g>
        </g>
    </g>
</svg>