<?xml version="1.0" encoding="UTF-8"?>
<svg width="15px" height="9px" viewBox="0 0 15 9" version="1.1" xmlns="http://www.w3.org/2000/svg" xmlns:xlink="http://www.w3.org/1999/xlink">
    <!-- Generator: Sketch 49.1 (51147) - http://www.bohemiancoding.com/sketch -->
    <title>Page 1</title>
    <desc>Created with Sketch.</desc>
    <defs>
        <polygon id="path-1" points="0 0 15 0 15 9 0 9"></polygon>
    </defs>
    <g id="desktop" stroke="none" stroke-width="1" fill="none" fill-rule="evenodd">
        <g id="results-item-detail" transform="translate(-208.000000, -440.000000)">
            <g id="Group-14" transform="translate(154.000000, 190.000000)">
                <g id="Group-6" transform="translate(38.000000, 234.000000)">
                    <g id="Group-20">
                        <g id="Page-1" transform="translate(16.000000, 16.000000)">
                            <mask id="mask-2" fill="white">
                                <use xlink:href="#path-1"></use>
                            </mask>
                            <g id="Clip-2"></g>
                            <path d="M14.846,0.0197514064 C14.75325,-0.0200964091 14.64575,0.00138001093 14.57375,0.0748655927 L12.6235,2.07864146 C10.83375,1.515597 9.13725,1.23019349 7.5785,1.23019349 C2.76225,1.23019349 0,3.96804891 0,8.74124795 C0,8.88433783 0.11175,9 0.25,9 C0.388,9 0.5,8.88433783 0.5,8.74124795 C0.5,5.54462514 2.81725,5.06722762 4.19875,5.06722762 C5.538,5.06722762 7.08175,5.48355966 8.58075,6.24558444 L6.38825,8.2547941 C6.3105,8.32620967 6.2835,8.43980182 6.32025,8.54045636 C6.35725,8.64085216 6.45025,8.70735143 6.55425,8.70735143 L14.75,8.70735143 C14.888,8.70735143 15,8.59168927 15,8.44859938 L15,0.258579547 C15,0.154302472 14.93925,0.0598579739 14.846,0.0197514064" id="Fill-1" fill="#FFFFFF" mask="url(#mask-2)"></path>
                        </g>
                    </g>
                </g>
            </g>
        </g>
    </g>
</svg>