<?xml version="1.0" encoding="utf-8"?>
<!-- Generator: Adobe Illustrator 22.1.0, SVG Export Plug-In . SVG Version: 6.00 Build 0)  -->
<svg version="1.1" id="Layer_1" xmlns="http://www.w3.org/2000/svg" xmlns:xlink="http://www.w3.org/1999/xlink" x="0px" y="0px"
	 viewBox="0 0 165.7 36.2" style="enable-background:new 0 0 165.7 36.2;" xml:space="preserve">
<style type="text/css">
	.st0{fill:#F9A31A;}
	.st1{fill:none;stroke:#000000;stroke-linecap:round;stroke-linejoin:round;}
	.st2{fill:#C90500;}
	.st3{font-family:'MyriadPro-Semibold';}
	.st4{font-size:26px;}
</style>
<title>Logo-design</title>
<polygon points="59.5,22.4 54.4,7.4 52.8,7.4 47.6,22.4 42.5,7.4 40,7.4 46.4,25.5 48.7,25.5 51.6,17.6 53.6,11.5 55.5,17.6 
	58.4,25.5 60.7,25.5 67.1,7.4 64.6,7.4 "/>
<path d="M77.5,7.1c-5-0.1-9.1,3.9-9.2,8.9c0,0.1,0,0.3,0,0.4c0,5.5,3.8,9.3,9.2,9.3c3,0.1,5.9-1.2,7.8-3.5l0.2-0.2l-1.6-1.3
	l-0.2,0.2c-1.3,1.8-4,2.6-6.1,2.6c-3.5,0.2-6.6-2.5-6.9-6h15.8v-0.2c0.4-2.7-0.3-5.4-2-7.4C82.7,8,80.1,7,77.5,7.1z M84.4,15.5H70.7
	c0.3-3.6,3.3-6.3,6.9-6.3C81.7,9.2,84.3,11.5,84.4,15.5z"/>
<path d="M47,30.4v4.1h2v0.5h-2.5v-4.5H47z"/>
<path d="M52.7,33.4h-2.8c0,0.6,0.6,1.1,1.2,1.1c0.4,0,0.8-0.2,1.1-0.4l0.3,0.3c-0.4,0.4-0.9,0.6-1.4,0.6c-1-0.1-1.7-0.9-1.6-1.9
	c0.1-0.9,0.7-1.5,1.6-1.6C52.2,31.5,52.7,32.3,52.7,33.4z M52.2,33c0-0.6-0.5-1.1-1.1-1.1c0,0,0,0-0.1,0c-0.6,0-1.2,0.5-1.2,1.1
	H52.2z"/>
<path d="M58.8,33.2c0.1,0.9-0.6,1.6-1.5,1.7c0,0-0.1,0-0.1,0c-0.6,0-1.1-0.3-1.3-0.8v2h-0.5v-4.7h0.5v0.8c0.3-0.5,0.8-0.8,1.3-0.8
	C58.1,31.5,58.8,32.2,58.8,33.2C58.8,33.2,58.8,33.2,58.8,33.2z M58.3,33.2c0-0.7-0.6-1.2-1.3-1.2c-0.7,0-1.2,0.6-1.2,1.3
	c0,0.6,0.6,1.2,1.2,1.2c0.7,0,1.2-0.5,1.2-1.2C58.3,33.3,58.3,33.3,58.3,33.2L58.3,33.2z"/>
<path d="M62.8,33.2c0,1-0.8,1.7-1.7,1.7c-1,0-1.7-0.8-1.7-1.7s0.8-1.7,1.7-1.7c0,0,0,0,0,0c0.9,0,1.7,0.7,1.7,1.6
	C62.8,33.1,62.8,33.2,62.8,33.2z M59.8,33.2c-0.1,0.7,0.4,1.3,1.1,1.3s1.3-0.4,1.3-1.1c0-0.1,0-0.1,0-0.2c0.1-0.7-0.4-1.3-1.1-1.3
	s-1.3,0.4-1.3,1.1C59.8,33.1,59.8,33.1,59.8,33.2z"/>
<path d="M65.4,31.5V32c-0.6,0-1.2,0.4-1.2,1.1c0,0,0,0,0,0.1v1.8h-0.5v-3.4h0.5v0.8C64.4,31.8,64.9,31.5,65.4,31.5z"/>
<path d="M67.9,34.7c-0.2,0.2-0.5,0.3-0.8,0.3c-0.5,0-0.9-0.3-0.9-1v-2h-0.5v-0.4h0.5v-0.9h0.5v0.9h1.1v0.4h-1.1v2
	c0,0.4,0.2,0.6,0.4,0.6c0.2,0,0.4-0.1,0.6-0.2L67.9,34.7z"/>
<path d="M70.8,34.9v-0.5c-0.3,0.4-0.8,0.6-1.2,0.5c-0.6,0.1-1.1-0.4-1.2-1c0,0,0,0,0,0c0-0.6,0.5-1,1.3-1h1.1v-0.2
	c0-0.5-0.3-0.8-0.9-0.8c-0.4,0-0.8,0.2-1.1,0.4L68.5,32c0.4-0.3,0.9-0.5,1.4-0.5c0.6-0.1,1.2,0.3,1.3,1c0,0.1,0,0.1,0,0.2v2.3
	L70.8,34.9z M70.8,33.8v-0.5h-1.1c-0.6,0-0.9,0.2-0.9,0.6s0.3,0.6,0.8,0.6C70.1,34.5,70.6,34.2,70.8,33.8L70.8,33.8z"/>
<path d="M73,30.5c0,0.2-0.1,0.3-0.3,0.3s-0.3-0.1-0.3-0.3s0.1-0.3,0.3-0.3S73,30.4,73,30.5z M72.9,31.5v3.4h-0.5v-3.4L72.9,31.5z"/>
<path d="M74.7,30.1v4.8h-0.5v-4.8H74.7z"/>
<path d="M80.8,30.1v4.8h-0.5v-0.7C80.1,34.7,79.5,35,79,35c-1-0.1-1.7-0.9-1.6-1.9c0.1-0.9,0.7-1.5,1.6-1.6c0.6,0,1.1,0.3,1.3,0.8
	v-2.1H80.8z M80.3,33.2c0-0.7-0.6-1.2-1.3-1.2s-1.2,0.6-1.2,1.3c0,0.7,0.6,1.2,1.2,1.2c0.7,0,1.2-0.5,1.2-1.2
	C80.3,33.3,80.3,33.3,80.3,33.2z"/>
<path d="M85,33.4h-2.8c0,0.6,0.6,1.1,1.2,1.1c0.4,0,0.7-0.2,1-0.4l0.3,0.3c-0.4,0.4-0.9,0.6-1.4,0.6c-1-0.1-1.7-0.9-1.6-1.9
	c0.1-0.9,0.7-1.5,1.6-1.6C84.5,31.5,85.1,32.3,85,33.4z M84.6,33c0-0.6-0.5-1.1-1-1.1c0,0-0.1,0-0.1,0c-0.6,0-1.2,0.5-1.2,1.1H84.6z
	"/>
<path d="M86.8,31.9c-0.4,0-0.7,0.1-0.7,0.5c0,0.8,1.9,0.4,1.9,1.6c0,0.7-0.6,1-1.2,1c-0.5,0-0.9-0.2-1.3-0.5l0.2-0.4
	c0.3,0.3,0.7,0.4,1.1,0.4c0.4,0,0.7-0.2,0.7-0.5c0-0.8-1.9-0.4-1.9-1.6c0-0.7,0.6-0.9,1.2-0.9c0.4,0,0.8,0.1,1.1,0.3l-0.2,0.4
	C87.4,32,87.1,31.9,86.8,31.9z"/>
<path d="M92.7,34.9v-0.5c-0.3,0.4-0.8,0.6-1.2,0.5c-0.5,0.1-1.1-0.3-1.1-0.8c0-0.1,0-0.1,0-0.2c0-0.6,0.5-1,1.3-1h1.1v-0.2
	c0-0.5-0.3-0.8-0.9-0.8c-0.4,0-0.8,0.1-1.1,0.4l-0.2-0.4c0.4-0.3,0.9-0.5,1.4-0.5c0.8,0,1.3,0.5,1.3,1.2v2.3L92.7,34.9z M92.7,33.8
	v-0.5h-1c-0.6,0-0.9,0.2-0.9,0.6s0.3,0.6,0.8,0.6C92.1,34.5,92.5,34.2,92.7,33.8z"/>
<path d="M96.1,31.5V32c-0.6,0-1.2,0.4-1.2,1.1c0,0,0,0,0,0.1v1.8h-0.5v-3.4h0.5v0.8C95.1,31.8,95.5,31.5,96.1,31.5z"/>
<path d="M98.5,34.7c-0.2,0.2-0.5,0.3-0.8,0.3c-0.5,0-0.9-0.3-0.9-1v-2h-0.5v-0.4h0.5v-0.9h0.5v0.9h1.1v0.4h-1.1v2
	c0,0.4,0.2,0.6,0.4,0.6c0.2,0,0.4-0.1,0.5-0.2L98.5,34.7z"/>
<path d="M99.9,30.5c0,0.2-0.1,0.3-0.3,0.3s-0.3-0.1-0.3-0.3s0.1-0.3,0.3-0.3S99.9,30.4,99.9,30.5z M99.8,31.5v3.4h-0.5v-3.4
	L99.8,31.5z"/>
<path d="M101.9,31.9c-0.4,0-0.7,0.1-0.7,0.5c0,0.8,1.9,0.4,1.9,1.6c0,0.7-0.6,1-1.2,1c-0.5,0-0.9-0.2-1.3-0.5l0.2-0.4
	c0.3,0.3,0.7,0.4,1.1,0.4c0.4,0,0.7-0.2,0.7-0.5c0-0.8-1.9-0.4-1.9-1.6c0-0.7,0.6-0.9,1.2-0.9c0.4,0,0.8,0.1,1.1,0.3l-0.2,0.4
	C102.5,32,102.2,31.9,101.9,31.9z"/>
<path d="M106.1,34.9v-0.5c-0.3,0.4-0.8,0.6-1.2,0.5c-0.6,0.1-1.1-0.4-1.2-1c0,0,0,0,0,0c0-0.6,0.5-1,1.3-1h1.1v-0.2
	c0-0.5-0.3-0.8-0.9-0.8c-0.4,0-0.8,0.2-1.1,0.4l-0.2-0.4c0.4-0.3,0.9-0.5,1.4-0.5c0.8,0,1.3,0.5,1.3,1.2v2.3L106.1,34.9z
	 M106.1,33.8v-0.5H105c-0.6,0-0.9,0.2-0.9,0.6s0.3,0.6,0.8,0.6C105.4,34.5,105.9,34.2,106.1,33.8z"/>
<path d="M110.8,32.8v2.1h-0.5v-2c0.1-0.5-0.3-0.9-0.8-1c-0.1,0-0.2,0-0.2,0c-0.6,0-1.1,0.5-1.1,1.1c0,0,0,0,0,0v1.8h-0.4v-3.3h0.5
	v0.8c0.2-0.5,0.8-0.8,1.3-0.8c0.7,0,1.2,0.5,1.3,1.1C110.8,32.7,110.8,32.8,110.8,32.8z"/>
<path d="M112.8,31.9c-0.4,0-0.7,0.1-0.7,0.5c0,0.8,1.9,0.4,1.9,1.6c0,0.7-0.6,1-1.2,1c-0.5,0-0.9-0.2-1.3-0.5l0.2-0.4
	c0.3,0.3,0.7,0.4,1.1,0.4c0.4,0,0.7-0.2,0.7-0.5c0-0.8-1.9-0.4-1.9-1.6c0-0.7,0.6-0.9,1.2-0.9c0.4,0,0.8,0.1,1.1,0.3l-0.2,0.4
	C113.5,32,113.1,31.9,112.8,31.9z"/>
<path d="M118.8,34.9v-0.5c-0.3,0.4-0.8,0.6-1.2,0.5c-0.6,0.1-1.1-0.4-1.2-1c0,0,0,0,0,0c0-0.6,0.5-1,1.3-1h1.1v-0.2
	c0-0.5-0.3-0.8-0.9-0.8c-0.4,0-0.8,0.2-1.1,0.4l-0.2-0.4c0.4-0.3,0.9-0.5,1.4-0.5c0.6-0.1,1.2,0.3,1.3,1c0,0.1,0,0.1,0,0.2v2.3
	L118.8,34.9z M118.8,33.8v-0.5h-1.1c-0.6,0-0.9,0.2-0.9,0.6s0.3,0.6,0.8,0.6C118.1,34.5,118.6,34.2,118.8,33.8z"/>
<path d="M123.3,31.5v3.4h-0.5v-0.8c-0.2,0.5-0.7,0.8-1.3,0.8c-0.7,0-1.2-0.5-1.3-1.1c0-0.1,0-0.1,0-0.2v-2.1h0.5v2
	c-0.1,0.5,0.3,0.9,0.7,1c0.1,0,0.2,0,0.3,0c0.6,0,1.1-0.5,1.1-1.2c0,0,0-0.1,0-0.1v-1.7H123.3z"/>
<path d="M126.9,30.4v4.1h2v0.5h-2.5v-4.5H126.9z"/>
<path d="M132.7,31.5v3.4h-0.5v-0.8c-0.2,0.5-0.7,0.8-1.3,0.8c-0.7,0-1.2-0.5-1.3-1.1c0-0.1,0-0.1,0-0.2v-2.1h0.5v2
	c-0.1,0.5,0.3,0.9,0.7,1c0.1,0,0.1,0,0.2,0c0.6,0,1.1-0.5,1.1-1.1c0,0,0-0.1,0-0.1v-1.7H132.7z"/>
<path d="M134.1,31.5l0.9,1.3l0.9-1.3h0.6l-1.1,1.7l1.2,1.8H136l-1-1.4l-1,1.4h-0.6l1.3-1.8l-1.1-1.7L134.1,31.5z"/>
<path d="M140.1,33.4h-2.8c0,0.6,0.6,1.1,1.2,1.1c0.4,0,0.8-0.2,1.1-0.4l0.3,0.3c-0.4,0.4-0.9,0.6-1.4,0.6c-1-0.1-1.7-0.9-1.6-1.9
	c0.1-0.9,0.7-1.5,1.6-1.6C139.6,31.5,140.2,32.3,140.1,33.4z M139.7,33c0-0.6-0.5-1.1-1.1-1.1c0,0,0,0-0.1,0c-0.6,0-1.2,0.5-1.2,1.1
	H139.7z"/>
<path d="M146.6,32.8v2.1h-0.5v-2c0.1-0.5-0.3-0.9-0.7-1c-0.1,0-0.1,0-0.2,0c-0.6,0-1.1,0.5-1.1,1.1c0,0.1,0,0.2,0,0.2V35h-0.5v-2
	c0.1-0.5-0.3-0.9-0.7-1c-0.1,0-0.1,0-0.2,0c-0.6,0-1.1,0.5-1.1,1.1c0,0.1,0,0.1,0,0.2V35H141v-3.5h0.5v0.8c0.2-0.5,0.7-0.8,1.3-0.8
	c0.6,0,1.1,0.3,1.2,0.9c0.2-0.6,0.8-0.9,1.4-0.9c0.7,0,1.2,0.4,1.3,1.1C146.6,32.7,146.6,32.8,146.6,32.8z"/>
<path d="M151.2,33.2c0.1,0.9-0.6,1.6-1.5,1.7c0,0-0.1,0-0.1,0c-0.6,0-1.1-0.3-1.3-0.8v0.7h-0.5v-4.8h0.5v2.2
	c0.3-0.5,0.8-0.8,1.3-0.8c0.9,0,1.6,0.7,1.6,1.6C151.2,33.2,151.2,33.2,151.2,33.2z M150.7,33.2c0-0.7-0.6-1.2-1.3-1.2
	c-0.7,0-1.2,0.6-1.2,1.3c0,0.6,0.6,1.2,1.2,1.2C150.2,34.5,150.7,34,150.7,33.2C150.7,33.3,150.7,33.3,150.7,33.2L150.7,33.2z"/>
<path d="M155.2,33.2c0,1-0.8,1.7-1.7,1.7c-1,0-1.7-0.8-1.7-1.7s0.8-1.7,1.7-1.7c0,0,0,0,0,0c0.9,0,1.7,0.7,1.7,1.6
	C155.2,33.1,155.2,33.2,155.2,33.2z M152.2,33.2c-0.1,0.7,0.4,1.3,1.1,1.3c0.7,0.1,1.3-0.4,1.3-1.1c0-0.1,0-0.1,0-0.2
	c0.1-0.7-0.4-1.3-1.1-1.3c-0.7-0.1-1.3,0.4-1.3,1.1C152.2,33.1,152.2,33.1,152.2,33.2z"/>
<path d="M159.1,31.5v3.4h-0.5v-0.8c-0.2,0.5-0.7,0.8-1.3,0.8c-0.7,0-1.2-0.5-1.3-1.1c0-0.1,0-0.1,0-0.2v-2.1h0.5v2
	c-0.1,0.5,0.3,0.9,0.7,1c0.1,0,0.1,0,0.2,0c0.6,0,1.1-0.5,1.1-1.1c0,0,0-0.1,0-0.1v-1.7H159.1z"/>
<path d="M162.1,31.5V32c-0.6,0-1.2,0.4-1.2,1.1c0,0,0,0,0,0.1v1.8h-0.5v-3.4h0.5v0.8C161,31.8,161.5,31.5,162.1,31.5z"/>
<path d="M165.7,31.5v3c0,0.9-0.6,1.6-1.5,1.6c-0.1,0-0.1,0-0.2,0c-0.5,0-1-0.2-1.4-0.5l0.2-0.4c0.3,0.3,0.7,0.4,1.1,0.4
	c0.6,0.1,1.2-0.4,1.2-1c0-0.1,0-0.1,0-0.2v-0.5c-0.2,0.5-0.7,0.7-1.2,0.7c-0.9,0-1.6-0.7-1.6-1.6c0-0.9,0.7-1.6,1.6-1.6
	c0.5,0,1,0.2,1.3,0.7v-0.7L165.7,31.5z M165.2,33.2c0-0.6-0.6-1.2-1.2-1.1c-0.6,0-1.2,0.6-1.1,1.2c0,0.6,0.5,1.1,1.2,1.1
	C164.7,34.4,165.2,33.9,165.2,33.2C165.2,33.2,165.2,33.2,165.2,33.2z"/>
<path class="st0" d="M1.9,33.5l11.8-11.8c5,4.1,12.3,3.5,16.5-1.5s3.5-12.3-1.5-16.5S16.3,0.3,12.2,5.3c-3.6,4.3-3.6,10.6,0,14.9
	L0.3,32c-0.4,0.4-0.5,1.1-0.1,1.5C0.7,34,1.3,34,1.9,33.5C1.8,33.6,1.8,33.5,1.9,33.5z M11.6,12.8c0-5.2,4.2-9.4,9.4-9.4
	c5.2,0,9.4,4.2,9.4,9.4s-4.2,9.4-9.4,9.4c0,0,0,0,0,0C15.8,22.2,11.6,18,11.6,12.8z"/>
<path class="st1" d="M15.9,12.9c0-2.8,2.3-5.1,5.2-5.1"/>
<text transform="matrix(1 0 0 1 91.2999 25.425)" class="st2 st3 st4">TEST</text>
</svg>
